<?xml version="1.0" encoding="utf-8" standalone="no"?>
<!DOCTYPE svg PUBLIC "-//W3C//DTD SVG 1.1//EN"
  "http://www.w3.org/Graphics/SVG/1.1/DTD/svg11.dtd">
<svg xmlns:xlink="http://www.w3.org/1999/xlink" width="928.46125pt" height="333.525792pt" viewBox="0 0 928.46125 333.525792" xmlns="http://www.w3.org/2000/svg" version="1.1">
 <metadata>
  <rdf:RDF xmlns:dc="http://purl.org/dc/elements/1.1/" xmlns:cc="http://creativecommons.org/ns#" xmlns:rdf="http://www.w3.org/1999/02/22-rdf-syntax-ns#">
   <cc:Work>
    <dc:type rdf:resource="http://purl.org/dc/dcmitype/StillImage"/>
    <dc:date>2026-05-07T05:36:59.310220</dc:date>
    <dc:format>image/svg+xml</dc:format>
    <dc:creator>
     <cc:Agent>
      <dc:title>Matplotlib v3.10.8, https://matplotlib.org/</dc:title>
     </cc:Agent>
    </dc:creator>
   </cc:Work>
  </rdf:RDF>
 </metadata>
 <defs>
  <style type="text/css">*{stroke-linejoin: round; stroke-linecap: butt}</style>
 </defs>
 <g id="figure_1">
  <g id="patch_1">
   <path d="M 0 333.525792 
L 928.46125 333.525792 
L 928.46125 -0 
L 0 -0 
z
" style="fill: #ffffff"/>
  </g>
  <g id="axes_1">
   <g id="patch_2">
    <path d="M 43.78125 288.014002 
L 324.333192 288.014002 
L 324.333192 62.16 
L 43.78125 62.16 
z
" style="fill: #ffffff"/>
   </g>
   <g id="patch_3">
    <path d="M 56.533611 513.868004 
L 99.041481 513.868004 
L 99.041481 154.259163 
L 56.533611 154.259163 
z
" clip-path="url(#pb975d7ef9e)" style="fill: #1f77b4; opacity: 0.6; stroke: #1f77b4; stroke-width: 1.2; stroke-linejoin: miter"/>
   </g>
   <g id="patch_4">
    <path d="M 109.668448 513.868004 
L 152.176318 513.868004 
L 152.176318 155.414401 
L 109.668448 155.414401 
z
" clip-path="url(#pb975d7ef9e)" style="fill: #1f77b4; opacity: 0.6; stroke: #1f77b4; stroke-width: 1.2; stroke-linejoin: miter"/>
   </g>
   <g id="patch_5">
    <path d="M 162.803286 513.868004 
L 205.311156 513.868004 
L 205.311156 150.627506 
L 162.803286 150.627506 
z
" clip-path="url(#pb975d7ef9e)" style="fill: #1f77b4; opacity: 0.6; stroke: #1f77b4; stroke-width: 1.2; stroke-linejoin: miter"/>
   </g>
   <g id="patch_6">
    <path d="M 215.938123 513.868004 
L 258.445993 513.868004 
L 258.445993 158.68271 
L 215.938123 158.68271 
z
" clip-path="url(#pb975d7ef9e)" style="fill: #1f77b4; opacity: 0.6; stroke: #1f77b4; stroke-width: 1.2; stroke-linejoin: miter"/>
   </g>
   <g id="patch_7">
    <path d="M 269.072961 513.868004 
L 311.580831 513.868004 
L 311.580831 163.264285 
L 269.072961 163.264285 
z
" clip-path="url(#pb975d7ef9e)" style="fill: #1f77b4; opacity: 0.6; stroke: #1f77b4; stroke-width: 1.2; stroke-linejoin: miter"/>
   </g>
   <g id="matplotlib.axis_1">
    <g id="xtick_1">
     <g id="line2d_1">
      <defs>
       <path id="me3c73cf5a0" d="M 0 0 
L 0 3.5 
" style="stroke: #000000; stroke-width: 0.8"/>
      </defs>
      <g>
       <use xlink:href="#me3c73cf5a0" x="77.787546" y="288.014002" style="stroke: #000000; stroke-width: 0.8"/>
      </g>
     </g>
     <g id="text_1">
      <!-- FedAvg -->
      <g transform="translate(48.618311 317.236945) rotate(-30) scale(0.09 -0.09)">
       <defs>
        <path id="DejaVuSans-46" d="M 628 4666 
L 3309 4666 
L 3309 4134 
L 1259 4134 
L 1259 2759 
L 3109 2759 
L 3109 2228 
L 1259 2228 
L 1259 0 
L 628 0 
L 628 4666 
z
" transform="scale(0.015625)"/>
        <path id="DejaVuSans-65" d="M 3597 1894 
L 3597 1613 
L 953 1613 
Q 991 1019 1311 708 
Q 1631 397 2203 397 
Q 2534 397 2845 478 
Q 3156 559 3463 722 
L 3463 178 
Q 3153 47 2828 -22 
Q 2503 -91 2169 -91 
Q 1331 -91 842 396 
Q 353 884 353 1716 
Q 353 2575 817 3079 
Q 1281 3584 2069 3584 
Q 2775 3584 3186 3129 
Q 3597 2675 3597 1894 
z
M 3022 2063 
Q 3016 2534 2758 2815 
Q 2500 3097 2075 3097 
Q 1594 3097 1305 2825 
Q 1016 2553 972 2059 
L 3022 2063 
z
" transform="scale(0.015625)"/>
        <path id="DejaVuSans-64" d="M 2906 2969 
L 2906 4863 
L 3481 4863 
L 3481 0 
L 2906 0 
L 2906 525 
Q 2725 213 2448 61 
Q 2172 -91 1784 -91 
Q 1150 -91 751 415 
Q 353 922 353 1747 
Q 353 2572 751 3078 
Q 1150 3584 1784 3584 
Q 2172 3584 2448 3432 
Q 2725 3281 2906 2969 
z
M 947 1747 
Q 947 1113 1208 752 
Q 1469 391 1925 391 
Q 2381 391 2643 752 
Q 2906 1113 2906 1747 
Q 2906 2381 2643 2742 
Q 2381 3103 1925 3103 
Q 1469 3103 1208 2742 
Q 947 2381 947 1747 
z
" transform="scale(0.015625)"/>
        <path id="DejaVuSans-41" d="M 2188 4044 
L 1331 1722 
L 3047 1722 
L 2188 4044 
z
M 1831 4666 
L 2547 4666 
L 4325 0 
L 3669 0 
L 3244 1197 
L 1141 1197 
L 716 0 
L 50 0 
L 1831 4666 
z
" transform="scale(0.015625)"/>
        <path id="DejaVuSans-76" d="M 191 3500 
L 800 3500 
L 1894 563 
L 2988 3500 
L 3597 3500 
L 2284 0 
L 1503 0 
L 191 3500 
z
" transform="scale(0.015625)"/>
        <path id="DejaVuSans-67" d="M 2906 1791 
Q 2906 2416 2648 2759 
Q 2391 3103 1925 3103 
Q 1463 3103 1205 2759 
Q 947 2416 947 1791 
Q 947 1169 1205 825 
Q 1463 481 1925 481 
Q 2391 481 2648 825 
Q 2906 1169 2906 1791 
z
M 3481 434 
Q 3481 -459 3084 -895 
Q 2688 -1331 1869 -1331 
Q 1566 -1331 1297 -1286 
Q 1028 -1241 775 -1147 
L 775 -588 
Q 1028 -725 1275 -790 
Q 1522 -856 1778 -856 
Q 2344 -856 2625 -561 
Q 2906 -266 2906 331 
L 2906 616 
Q 2728 306 2450 153 
Q 2172 0 1784 0 
Q 1141 0 747 490 
Q 353 981 353 1791 
Q 353 2603 747 3093 
Q 1141 3584 1784 3584 
Q 2172 3584 2450 3431 
Q 2728 3278 2906 2969 
L 2906 3500 
L 3481 3500 
L 3481 434 
z
" transform="scale(0.015625)"/>
       </defs>
       <use xlink:href="#DejaVuSans-46"/>
       <use xlink:href="#DejaVuSans-65" transform="translate(52.019531 0)"/>
       <use xlink:href="#DejaVuSans-64" transform="translate(113.542969 0)"/>
       <use xlink:href="#DejaVuSans-41" transform="translate(177.019531 0)"/>
       <use xlink:href="#DejaVuSans-76" transform="translate(239.552734 0)"/>
       <use xlink:href="#DejaVuSans-67" transform="translate(298.732422 0)"/>
      </g>
     </g>
    </g>
    <g id="xtick_2">
     <g id="line2d_2">
      <g>
       <use xlink:href="#me3c73cf5a0" x="130.922383" y="288.014002" style="stroke: #000000; stroke-width: 0.8"/>
      </g>
     </g>
     <g id="text_2">
      <!-- FedProx -->
      <g transform="translate(99.457505 318.562336) rotate(-30) scale(0.09 -0.09)">
       <defs>
        <path id="DejaVuSans-50" d="M 1259 4147 
L 1259 2394 
L 2053 2394 
Q 2494 2394 2734 2622 
Q 2975 2850 2975 3272 
Q 2975 3691 2734 3919 
Q 2494 4147 2053 4147 
L 1259 4147 
z
M 628 4666 
L 2053 4666 
Q 2838 4666 3239 4311 
Q 3641 3956 3641 3272 
Q 3641 2581 3239 2228 
Q 2838 1875 2053 1875 
L 1259 1875 
L 1259 0 
L 628 0 
L 628 4666 
z
" transform="scale(0.015625)"/>
        <path id="DejaVuSans-72" d="M 2631 2963 
Q 2534 3019 2420 3045 
Q 2306 3072 2169 3072 
Q 1681 3072 1420 2755 
Q 1159 2438 1159 1844 
L 1159 0 
L 581 0 
L 581 3500 
L 1159 3500 
L 1159 2956 
Q 1341 3275 1631 3429 
Q 1922 3584 2338 3584 
Q 2397 3584 2469 3576 
Q 2541 3569 2628 3553 
L 2631 2963 
z
" transform="scale(0.015625)"/>
        <path id="DejaVuSans-6f" d="M 1959 3097 
Q 1497 3097 1228 2736 
Q 959 2375 959 1747 
Q 959 1119 1226 758 
Q 1494 397 1959 397 
Q 2419 397 2687 759 
Q 2956 1122 2956 1747 
Q 2956 2369 2687 2733 
Q 2419 3097 1959 3097 
z
M 1959 3584 
Q 2709 3584 3137 3096 
Q 3566 2609 3566 1747 
Q 3566 888 3137 398 
Q 2709 -91 1959 -91 
Q 1206 -91 779 398 
Q 353 888 353 1747 
Q 353 2609 779 3096 
Q 1206 3584 1959 3584 
z
" transform="scale(0.015625)"/>
        <path id="DejaVuSans-78" d="M 3513 3500 
L 2247 1797 
L 3578 0 
L 2900 0 
L 1881 1375 
L 863 0 
L 184 0 
L 1544 1831 
L 300 3500 
L 978 3500 
L 1906 2253 
L 2834 3500 
L 3513 3500 
z
" transform="scale(0.015625)"/>
       </defs>
       <use xlink:href="#DejaVuSans-46"/>
       <use xlink:href="#DejaVuSans-65" transform="translate(52.019531 0)"/>
       <use xlink:href="#DejaVuSans-64" transform="translate(113.542969 0)"/>
       <use xlink:href="#DejaVuSans-50" transform="translate(177.019531 0)"/>
       <use xlink:href="#DejaVuSans-72" transform="translate(235.572266 0)"/>
       <use xlink:href="#DejaVuSans-6f" transform="translate(274.435547 0)"/>
       <use xlink:href="#DejaVuSans-78" transform="translate(332.492188 0)"/>
      </g>
     </g>
    </g>
    <g id="xtick_3">
     <g id="line2d_3">
      <g>
       <use xlink:href="#me3c73cf5a0" x="184.057221" y="288.014002" style="stroke: #000000; stroke-width: 0.8"/>
      </g>
     </g>
     <g id="text_3">
      <!-- FedAdam -->
      <g transform="translate(146.811217 321.90007) rotate(-30) scale(0.09 -0.09)">
       <defs>
        <path id="DejaVuSans-61" d="M 2194 1759 
Q 1497 1759 1228 1600 
Q 959 1441 959 1056 
Q 959 750 1161 570 
Q 1363 391 1709 391 
Q 2188 391 2477 730 
Q 2766 1069 2766 1631 
L 2766 1759 
L 2194 1759 
z
M 3341 1997 
L 3341 0 
L 2766 0 
L 2766 531 
Q 2569 213 2275 61 
Q 1981 -91 1556 -91 
Q 1019 -91 701 211 
Q 384 513 384 1019 
Q 384 1609 779 1909 
Q 1175 2209 1959 2209 
L 2766 2209 
L 2766 2266 
Q 2766 2663 2505 2880 
Q 2244 3097 1772 3097 
Q 1472 3097 1187 3025 
Q 903 2953 641 2809 
L 641 3341 
Q 956 3463 1253 3523 
Q 1550 3584 1831 3584 
Q 2591 3584 2966 3190 
Q 3341 2797 3341 1997 
z
" transform="scale(0.015625)"/>
        <path id="DejaVuSans-6d" d="M 3328 2828 
Q 3544 3216 3844 3400 
Q 4144 3584 4550 3584 
Q 5097 3584 5394 3201 
Q 5691 2819 5691 2113 
L 5691 0 
L 5113 0 
L 5113 2094 
Q 5113 2597 4934 2840 
Q 4756 3084 4391 3084 
Q 3944 3084 3684 2787 
Q 3425 2491 3425 1978 
L 3425 0 
L 2847 0 
L 2847 2094 
Q 2847 2600 2669 2842 
Q 2491 3084 2119 3084 
Q 1678 3084 1418 2786 
Q 1159 2488 1159 1978 
L 1159 0 
L 581 0 
L 581 3500 
L 1159 3500 
L 1159 2956 
Q 1356 3278 1631 3431 
Q 1906 3584 2284 3584 
Q 2666 3584 2933 3390 
Q 3200 3197 3328 2828 
z
" transform="scale(0.015625)"/>
       </defs>
       <use xlink:href="#DejaVuSans-46"/>
       <use xlink:href="#DejaVuSans-65" transform="translate(52.019531 0)"/>
       <use xlink:href="#DejaVuSans-64" transform="translate(113.542969 0)"/>
       <use xlink:href="#DejaVuSans-41" transform="translate(177.019531 0)"/>
       <use xlink:href="#DejaVuSans-64" transform="translate(243.677734 0)"/>
       <use xlink:href="#DejaVuSans-61" transform="translate(307.154297 0)"/>
       <use xlink:href="#DejaVuSans-6d" transform="translate(368.433594 0)"/>
      </g>
     </g>
    </g>
    <g id="xtick_4">
     <g id="line2d_4">
      <g>
       <use xlink:href="#me3c73cf5a0" x="237.192058" y="288.014002" style="stroke: #000000; stroke-width: 0.8"/>
      </g>
     </g>
     <g id="text_4">
      <!-- SCAFFOLD -->
      <g transform="translate(195.088058 324.704836) rotate(-30) scale(0.09 -0.09)">
       <defs>
        <path id="DejaVuSans-53" d="M 3425 4513 
L 3425 3897 
Q 3066 4069 2747 4153 
Q 2428 4238 2131 4238 
Q 1616 4238 1336 4038 
Q 1056 3838 1056 3469 
Q 1056 3159 1242 3001 
Q 1428 2844 1947 2747 
L 2328 2669 
Q 3034 2534 3370 2195 
Q 3706 1856 3706 1288 
Q 3706 609 3251 259 
Q 2797 -91 1919 -91 
Q 1588 -91 1214 -16 
Q 841 59 441 206 
L 441 856 
Q 825 641 1194 531 
Q 1563 422 1919 422 
Q 2459 422 2753 634 
Q 3047 847 3047 1241 
Q 3047 1584 2836 1778 
Q 2625 1972 2144 2069 
L 1759 2144 
Q 1053 2284 737 2584 
Q 422 2884 422 3419 
Q 422 4038 858 4394 
Q 1294 4750 2059 4750 
Q 2388 4750 2728 4690 
Q 3069 4631 3425 4513 
z
" transform="scale(0.015625)"/>
        <path id="DejaVuSans-43" d="M 4122 4306 
L 4122 3641 
Q 3803 3938 3442 4084 
Q 3081 4231 2675 4231 
Q 1875 4231 1450 3742 
Q 1025 3253 1025 2328 
Q 1025 1406 1450 917 
Q 1875 428 2675 428 
Q 3081 428 3442 575 
Q 3803 722 4122 1019 
L 4122 359 
Q 3791 134 3420 21 
Q 3050 -91 2638 -91 
Q 1578 -91 968 557 
Q 359 1206 359 2328 
Q 359 3453 968 4101 
Q 1578 4750 2638 4750 
Q 3056 4750 3426 4639 
Q 3797 4528 4122 4306 
z
" transform="scale(0.015625)"/>
        <path id="DejaVuSans-4f" d="M 2522 4238 
Q 1834 4238 1429 3725 
Q 1025 3213 1025 2328 
Q 1025 1447 1429 934 
Q 1834 422 2522 422 
Q 3209 422 3611 934 
Q 4013 1447 4013 2328 
Q 4013 3213 3611 3725 
Q 3209 4238 2522 4238 
z
M 2522 4750 
Q 3503 4750 4090 4092 
Q 4678 3434 4678 2328 
Q 4678 1225 4090 567 
Q 3503 -91 2522 -91 
Q 1538 -91 948 565 
Q 359 1222 359 2328 
Q 359 3434 948 4092 
Q 1538 4750 2522 4750 
z
" transform="scale(0.015625)"/>
        <path id="DejaVuSans-4c" d="M 628 4666 
L 1259 4666 
L 1259 531 
L 3531 531 
L 3531 0 
L 628 0 
L 628 4666 
z
" transform="scale(0.015625)"/>
        <path id="DejaVuSans-44" d="M 1259 4147 
L 1259 519 
L 2022 519 
Q 2988 519 3436 956 
Q 3884 1394 3884 2338 
Q 3884 3275 3436 3711 
Q 2988 4147 2022 4147 
L 1259 4147 
z
M 628 4666 
L 1925 4666 
Q 3281 4666 3915 4102 
Q 4550 3538 4550 2338 
Q 4550 1131 3912 565 
Q 3275 0 1925 0 
L 628 0 
L 628 4666 
z
" transform="scale(0.015625)"/>
       </defs>
       <use xlink:href="#DejaVuSans-53"/>
       <use xlink:href="#DejaVuSans-43" transform="translate(63.476562 0)"/>
       <use xlink:href="#DejaVuSans-41" transform="translate(133.300781 0)"/>
       <use xlink:href="#DejaVuSans-46" transform="translate(201.708984 0)"/>
       <use xlink:href="#DejaVuSans-46" transform="translate(259.228516 0)"/>
       <use xlink:href="#DejaVuSans-4f" transform="translate(316.748047 0)"/>
       <use xlink:href="#DejaVuSans-4c" transform="translate(395.458984 0)"/>
       <use xlink:href="#DejaVuSans-44" transform="translate(451.171875 0)"/>
      </g>
     </g>
    </g>
    <g id="xtick_5">
     <g id="line2d_5">
      <g>
       <use xlink:href="#me3c73cf5a0" x="290.326896" y="288.014002" style="stroke: #000000; stroke-width: 0.8"/>
      </g>
     </g>
     <g id="text_5">
      <!-- FedDyn -->
      <g transform="translate(260.038459 317.883117) rotate(-30) scale(0.09 -0.09)">
       <defs>
        <path id="DejaVuSans-79" d="M 2059 -325 
Q 1816 -950 1584 -1140 
Q 1353 -1331 966 -1331 
L 506 -1331 
L 506 -850 
L 844 -850 
Q 1081 -850 1212 -737 
Q 1344 -625 1503 -206 
L 1606 56 
L 191 3500 
L 800 3500 
L 1894 763 
L 2988 3500 
L 3597 3500 
L 2059 -325 
z
" transform="scale(0.015625)"/>
        <path id="DejaVuSans-6e" d="M 3513 2113 
L 3513 0 
L 2938 0 
L 2938 2094 
Q 2938 2591 2744 2837 
Q 2550 3084 2163 3084 
Q 1697 3084 1428 2787 
Q 1159 2491 1159 1978 
L 1159 0 
L 581 0 
L 581 3500 
L 1159 3500 
L 1159 2956 
Q 1366 3272 1645 3428 
Q 1925 3584 2291 3584 
Q 2894 3584 3203 3211 
Q 3513 2838 3513 2113 
z
" transform="scale(0.015625)"/>
       </defs>
       <use xlink:href="#DejaVuSans-46"/>
       <use xlink:href="#DejaVuSans-65" transform="translate(52.019531 0)"/>
       <use xlink:href="#DejaVuSans-64" transform="translate(113.542969 0)"/>
       <use xlink:href="#DejaVuSans-44" transform="translate(177.019531 0)"/>
       <use xlink:href="#DejaVuSans-79" transform="translate(254.021484 0)"/>
       <use xlink:href="#DejaVuSans-6e" transform="translate(313.201172 0)"/>
      </g>
     </g>
    </g>
   </g>
   <g id="matplotlib.axis_2">
    <g id="ytick_1">
     <g id="line2d_6">
      <path d="M 43.78125 288.014002 
L 324.333192 288.014002 
" clip-path="url(#pb975d7ef9e)" style="fill: none; stroke: #b0b0b0; stroke-opacity: 0.3; stroke-width: 0.8; stroke-linecap: square"/>
     </g>
     <g id="line2d_7">
      <defs>
       <path id="m09f2cfc34c" d="M 0 0 
L -3.5 0 
" style="stroke: #000000; stroke-width: 0.8"/>
      </defs>
      <g>
       <use xlink:href="#m09f2cfc34c" x="43.78125" y="288.014002" style="stroke: #000000; stroke-width: 0.8"/>
      </g>
     </g>
     <g id="text_6">
      <!-- 0.5 -->
      <g transform="translate(20.878125 291.813221) scale(0.1 -0.1)">
       <defs>
        <path id="DejaVuSans-30" d="M 2034 4250 
Q 1547 4250 1301 3770 
Q 1056 3291 1056 2328 
Q 1056 1369 1301 889 
Q 1547 409 2034 409 
Q 2525 409 2770 889 
Q 3016 1369 3016 2328 
Q 3016 3291 2770 3770 
Q 2525 4250 2034 4250 
z
M 2034 4750 
Q 2819 4750 3233 4129 
Q 3647 3509 3647 2328 
Q 3647 1150 3233 529 
Q 2819 -91 2034 -91 
Q 1250 -91 836 529 
Q 422 1150 422 2328 
Q 422 3509 836 4129 
Q 1250 4750 2034 4750 
z
" transform="scale(0.015625)"/>
        <path id="DejaVuSans-2e" d="M 684 794 
L 1344 794 
L 1344 0 
L 684 0 
L 684 794 
z
" transform="scale(0.015625)"/>
        <path id="DejaVuSans-35" d="M 691 4666 
L 3169 4666 
L 3169 4134 
L 1269 4134 
L 1269 2991 
Q 1406 3038 1543 3061 
Q 1681 3084 1819 3084 
Q 2600 3084 3056 2656 
Q 3513 2228 3513 1497 
Q 3513 744 3044 326 
Q 2575 -91 1722 -91 
Q 1428 -91 1123 -41 
Q 819 9 494 109 
L 494 744 
Q 775 591 1075 516 
Q 1375 441 1709 441 
Q 2250 441 2565 725 
Q 2881 1009 2881 1497 
Q 2881 1984 2565 2268 
Q 2250 2553 1709 2553 
Q 1456 2553 1204 2497 
Q 953 2441 691 2322 
L 691 4666 
z
" transform="scale(0.015625)"/>
       </defs>
       <use xlink:href="#DejaVuSans-30"/>
       <use xlink:href="#DejaVuSans-2e" transform="translate(63.623047 0)"/>
       <use xlink:href="#DejaVuSans-35" transform="translate(95.410156 0)"/>
      </g>
     </g>
    </g>
    <g id="ytick_2">
     <g id="line2d_8">
      <path d="M 43.78125 242.843202 
L 324.333192 242.843202 
" clip-path="url(#pb975d7ef9e)" style="fill: none; stroke: #b0b0b0; stroke-opacity: 0.3; stroke-width: 0.8; stroke-linecap: square"/>
     </g>
     <g id="line2d_9">
      <g>
       <use xlink:href="#m09f2cfc34c" x="43.78125" y="242.843202" style="stroke: #000000; stroke-width: 0.8"/>
      </g>
     </g>
     <g id="text_7">
      <!-- 0.6 -->
      <g transform="translate(20.878125 246.642421) scale(0.1 -0.1)">
       <defs>
        <path id="DejaVuSans-36" d="M 2113 2584 
Q 1688 2584 1439 2293 
Q 1191 2003 1191 1497 
Q 1191 994 1439 701 
Q 1688 409 2113 409 
Q 2538 409 2786 701 
Q 3034 994 3034 1497 
Q 3034 2003 2786 2293 
Q 2538 2584 2113 2584 
z
M 3366 4563 
L 3366 3988 
Q 3128 4100 2886 4159 
Q 2644 4219 2406 4219 
Q 1781 4219 1451 3797 
Q 1122 3375 1075 2522 
Q 1259 2794 1537 2939 
Q 1816 3084 2150 3084 
Q 2853 3084 3261 2657 
Q 3669 2231 3669 1497 
Q 3669 778 3244 343 
Q 2819 -91 2113 -91 
Q 1303 -91 875 529 
Q 447 1150 447 2328 
Q 447 3434 972 4092 
Q 1497 4750 2381 4750 
Q 2619 4750 2861 4703 
Q 3103 4656 3366 4563 
z
" transform="scale(0.015625)"/>
       </defs>
       <use xlink:href="#DejaVuSans-30"/>
       <use xlink:href="#DejaVuSans-2e" transform="translate(63.623047 0)"/>
       <use xlink:href="#DejaVuSans-36" transform="translate(95.410156 0)"/>
      </g>
     </g>
    </g>
    <g id="ytick_3">
     <g id="line2d_10">
      <path d="M 43.78125 197.672401 
L 324.333192 197.672401 
" clip-path="url(#pb975d7ef9e)" style="fill: none; stroke: #b0b0b0; stroke-opacity: 0.3; stroke-width: 0.8; stroke-linecap: square"/>
     </g>
     <g id="line2d_11">
      <g>
       <use xlink:href="#m09f2cfc34c" x="43.78125" y="197.672401" style="stroke: #000000; stroke-width: 0.8"/>
      </g>
     </g>
     <g id="text_8">
      <!-- 0.7 -->
      <g transform="translate(20.878125 201.47162) scale(0.1 -0.1)">
       <defs>
        <path id="DejaVuSans-37" d="M 525 4666 
L 3525 4666 
L 3525 4397 
L 1831 0 
L 1172 0 
L 2766 4134 
L 525 4134 
L 525 4666 
z
" transform="scale(0.015625)"/>
       </defs>
       <use xlink:href="#DejaVuSans-30"/>
       <use xlink:href="#DejaVuSans-2e" transform="translate(63.623047 0)"/>
       <use xlink:href="#DejaVuSans-37" transform="translate(95.410156 0)"/>
      </g>
     </g>
    </g>
    <g id="ytick_4">
     <g id="line2d_12">
      <path d="M 43.78125 152.501601 
L 324.333192 152.501601 
" clip-path="url(#pb975d7ef9e)" style="fill: none; stroke: #b0b0b0; stroke-opacity: 0.3; stroke-width: 0.8; stroke-linecap: square"/>
     </g>
     <g id="line2d_13">
      <g>
       <use xlink:href="#m09f2cfc34c" x="43.78125" y="152.501601" style="stroke: #000000; stroke-width: 0.8"/>
      </g>
     </g>
     <g id="text_9">
      <!-- 0.8 -->
      <g transform="translate(20.878125 156.30082) scale(0.1 -0.1)">
       <defs>
        <path id="DejaVuSans-38" d="M 2034 2216 
Q 1584 2216 1326 1975 
Q 1069 1734 1069 1313 
Q 1069 891 1326 650 
Q 1584 409 2034 409 
Q 2484 409 2743 651 
Q 3003 894 3003 1313 
Q 3003 1734 2745 1975 
Q 2488 2216 2034 2216 
z
M 1403 2484 
Q 997 2584 770 2862 
Q 544 3141 544 3541 
Q 544 4100 942 4425 
Q 1341 4750 2034 4750 
Q 2731 4750 3128 4425 
Q 3525 4100 3525 3541 
Q 3525 3141 3298 2862 
Q 3072 2584 2669 2484 
Q 3125 2378 3379 2068 
Q 3634 1759 3634 1313 
Q 3634 634 3220 271 
Q 2806 -91 2034 -91 
Q 1263 -91 848 271 
Q 434 634 434 1313 
Q 434 1759 690 2068 
Q 947 2378 1403 2484 
z
M 1172 3481 
Q 1172 3119 1398 2916 
Q 1625 2713 2034 2713 
Q 2441 2713 2670 2916 
Q 2900 3119 2900 3481 
Q 2900 3844 2670 4047 
Q 2441 4250 2034 4250 
Q 1625 4250 1398 4047 
Q 1172 3844 1172 3481 
z
" transform="scale(0.015625)"/>
       </defs>
       <use xlink:href="#DejaVuSans-30"/>
       <use xlink:href="#DejaVuSans-2e" transform="translate(63.623047 0)"/>
       <use xlink:href="#DejaVuSans-38" transform="translate(95.410156 0)"/>
      </g>
     </g>
    </g>
    <g id="ytick_5">
     <g id="line2d_14">
      <path d="M 43.78125 107.3308 
L 324.333192 107.3308 
" clip-path="url(#pb975d7ef9e)" style="fill: none; stroke: #b0b0b0; stroke-opacity: 0.3; stroke-width: 0.8; stroke-linecap: square"/>
     </g>
     <g id="line2d_15">
      <g>
       <use xlink:href="#m09f2cfc34c" x="43.78125" y="107.3308" style="stroke: #000000; stroke-width: 0.8"/>
      </g>
     </g>
     <g id="text_10">
      <!-- 0.9 -->
      <g transform="translate(20.878125 111.130019) scale(0.1 -0.1)">
       <defs>
        <path id="DejaVuSans-39" d="M 703 97 
L 703 672 
Q 941 559 1184 500 
Q 1428 441 1663 441 
Q 2288 441 2617 861 
Q 2947 1281 2994 2138 
Q 2813 1869 2534 1725 
Q 2256 1581 1919 1581 
Q 1219 1581 811 2004 
Q 403 2428 403 3163 
Q 403 3881 828 4315 
Q 1253 4750 1959 4750 
Q 2769 4750 3195 4129 
Q 3622 3509 3622 2328 
Q 3622 1225 3098 567 
Q 2575 -91 1691 -91 
Q 1453 -91 1209 -44 
Q 966 3 703 97 
z
M 1959 2075 
Q 2384 2075 2632 2365 
Q 2881 2656 2881 3163 
Q 2881 3666 2632 3958 
Q 2384 4250 1959 4250 
Q 1534 4250 1286 3958 
Q 1038 3666 1038 3163 
Q 1038 2656 1286 2365 
Q 1534 2075 1959 2075 
z
" transform="scale(0.015625)"/>
       </defs>
       <use xlink:href="#DejaVuSans-30"/>
       <use xlink:href="#DejaVuSans-2e" transform="translate(63.623047 0)"/>
       <use xlink:href="#DejaVuSans-39" transform="translate(95.410156 0)"/>
      </g>
     </g>
    </g>
    <g id="ytick_6">
     <g id="line2d_16">
      <path d="M 43.78125 62.16 
L 324.333192 62.16 
" clip-path="url(#pb975d7ef9e)" style="fill: none; stroke: #b0b0b0; stroke-opacity: 0.3; stroke-width: 0.8; stroke-linecap: square"/>
     </g>
     <g id="line2d_17">
      <g>
       <use xlink:href="#m09f2cfc34c" x="43.78125" y="62.16" style="stroke: #000000; stroke-width: 0.8"/>
      </g>
     </g>
     <g id="text_11">
      <!-- 1.0 -->
      <g transform="translate(20.878125 65.959219) scale(0.1 -0.1)">
       <defs>
        <path id="DejaVuSans-31" d="M 794 531 
L 1825 531 
L 1825 4091 
L 703 3866 
L 703 4441 
L 1819 4666 
L 2450 4666 
L 2450 531 
L 3481 531 
L 3481 0 
L 794 0 
L 794 531 
z
" transform="scale(0.015625)"/>
       </defs>
       <use xlink:href="#DejaVuSans-31"/>
       <use xlink:href="#DejaVuSans-2e" transform="translate(63.623047 0)"/>
       <use xlink:href="#DejaVuSans-30" transform="translate(95.410156 0)"/>
      </g>
     </g>
    </g>
    <g id="text_12">
     <!-- mean test AUC  (Dirichlet partitions only) -->
     <g transform="translate(14.798438 278.304189) rotate(-90) scale(0.1 -0.1)">
      <defs>
       <path id="DejaVuSans-20" transform="scale(0.015625)"/>
       <path id="DejaVuSans-74" d="M 1172 4494 
L 1172 3500 
L 2356 3500 
L 2356 3053 
L 1172 3053 
L 1172 1153 
Q 1172 725 1289 603 
Q 1406 481 1766 481 
L 2356 481 
L 2356 0 
L 1766 0 
Q 1100 0 847 248 
Q 594 497 594 1153 
L 594 3053 
L 172 3053 
L 172 3500 
L 594 3500 
L 594 4494 
L 1172 4494 
z
" transform="scale(0.015625)"/>
       <path id="DejaVuSans-73" d="M 2834 3397 
L 2834 2853 
Q 2591 2978 2328 3040 
Q 2066 3103 1784 3103 
Q 1356 3103 1142 2972 
Q 928 2841 928 2578 
Q 928 2378 1081 2264 
Q 1234 2150 1697 2047 
L 1894 2003 
Q 2506 1872 2764 1633 
Q 3022 1394 3022 966 
Q 3022 478 2636 193 
Q 2250 -91 1575 -91 
Q 1294 -91 989 -36 
Q 684 19 347 128 
L 347 722 
Q 666 556 975 473 
Q 1284 391 1588 391 
Q 1994 391 2212 530 
Q 2431 669 2431 922 
Q 2431 1156 2273 1281 
Q 2116 1406 1581 1522 
L 1381 1569 
Q 847 1681 609 1914 
Q 372 2147 372 2553 
Q 372 3047 722 3315 
Q 1072 3584 1716 3584 
Q 2034 3584 2315 3537 
Q 2597 3491 2834 3397 
z
" transform="scale(0.015625)"/>
       <path id="DejaVuSans-55" d="M 556 4666 
L 1191 4666 
L 1191 1831 
Q 1191 1081 1462 751 
Q 1734 422 2344 422 
Q 2950 422 3222 751 
Q 3494 1081 3494 1831 
L 3494 4666 
L 4128 4666 
L 4128 1753 
Q 4128 841 3676 375 
Q 3225 -91 2344 -91 
Q 1459 -91 1007 375 
Q 556 841 556 1753 
L 556 4666 
z
" transform="scale(0.015625)"/>
       <path id="DejaVuSans-28" d="M 1984 4856 
Q 1566 4138 1362 3434 
Q 1159 2731 1159 2009 
Q 1159 1288 1364 580 
Q 1569 -128 1984 -844 
L 1484 -844 
Q 1016 -109 783 600 
Q 550 1309 550 2009 
Q 550 2706 781 3412 
Q 1013 4119 1484 4856 
L 1984 4856 
z
" transform="scale(0.015625)"/>
       <path id="DejaVuSans-69" d="M 603 3500 
L 1178 3500 
L 1178 0 
L 603 0 
L 603 3500 
z
M 603 4863 
L 1178 4863 
L 1178 4134 
L 603 4134 
L 603 4863 
z
" transform="scale(0.015625)"/>
       <path id="DejaVuSans-63" d="M 3122 3366 
L 3122 2828 
Q 2878 2963 2633 3030 
Q 2388 3097 2138 3097 
Q 1578 3097 1268 2742 
Q 959 2388 959 1747 
Q 959 1106 1268 751 
Q 1578 397 2138 397 
Q 2388 397 2633 464 
Q 2878 531 3122 666 
L 3122 134 
Q 2881 22 2623 -34 
Q 2366 -91 2075 -91 
Q 1284 -91 818 406 
Q 353 903 353 1747 
Q 353 2603 823 3093 
Q 1294 3584 2113 3584 
Q 2378 3584 2631 3529 
Q 2884 3475 3122 3366 
z
" transform="scale(0.015625)"/>
       <path id="DejaVuSans-68" d="M 3513 2113 
L 3513 0 
L 2938 0 
L 2938 2094 
Q 2938 2591 2744 2837 
Q 2550 3084 2163 3084 
Q 1697 3084 1428 2787 
Q 1159 2491 1159 1978 
L 1159 0 
L 581 0 
L 581 4863 
L 1159 4863 
L 1159 2956 
Q 1366 3272 1645 3428 
Q 1925 3584 2291 3584 
Q 2894 3584 3203 3211 
Q 3513 2838 3513 2113 
z
" transform="scale(0.015625)"/>
       <path id="DejaVuSans-6c" d="M 603 4863 
L 1178 4863 
L 1178 0 
L 603 0 
L 603 4863 
z
" transform="scale(0.015625)"/>
       <path id="DejaVuSans-70" d="M 1159 525 
L 1159 -1331 
L 581 -1331 
L 581 3500 
L 1159 3500 
L 1159 2969 
Q 1341 3281 1617 3432 
Q 1894 3584 2278 3584 
Q 2916 3584 3314 3078 
Q 3713 2572 3713 1747 
Q 3713 922 3314 415 
Q 2916 -91 2278 -91 
Q 1894 -91 1617 61 
Q 1341 213 1159 525 
z
M 3116 1747 
Q 3116 2381 2855 2742 
Q 2594 3103 2138 3103 
Q 1681 3103 1420 2742 
Q 1159 2381 1159 1747 
Q 1159 1113 1420 752 
Q 1681 391 2138 391 
Q 2594 391 2855 752 
Q 3116 1113 3116 1747 
z
" transform="scale(0.015625)"/>
       <path id="DejaVuSans-29" d="M 513 4856 
L 1013 4856 
Q 1481 4119 1714 3412 
Q 1947 2706 1947 2009 
Q 1947 1309 1714 600 
Q 1481 -109 1013 -844 
L 513 -844 
Q 928 -128 1133 580 
Q 1338 1288 1338 2009 
Q 1338 2731 1133 3434 
Q 928 4138 513 4856 
z
" transform="scale(0.015625)"/>
      </defs>
      <use xlink:href="#DejaVuSans-6d"/>
      <use xlink:href="#DejaVuSans-65" transform="translate(97.412109 0)"/>
      <use xlink:href="#DejaVuSans-61" transform="translate(158.935547 0)"/>
      <use xlink:href="#DejaVuSans-6e" transform="translate(220.214844 0)"/>
      <use xlink:href="#DejaVuSans-20" transform="translate(283.59375 0)"/>
      <use xlink:href="#DejaVuSans-74" transform="translate(315.380859 0)"/>
      <use xlink:href="#DejaVuSans-65" transform="translate(354.589844 0)"/>
      <use xlink:href="#DejaVuSans-73" transform="translate(416.113281 0)"/>
      <use xlink:href="#DejaVuSans-74" transform="translate(468.212891 0)"/>
      <use xlink:href="#DejaVuSans-20" transform="translate(507.421875 0)"/>
      <use xlink:href="#DejaVuSans-41" transform="translate(539.208984 0)"/>
      <use xlink:href="#DejaVuSans-55" transform="translate(607.617188 0)"/>
      <use xlink:href="#DejaVuSans-43" transform="translate(680.810547 0)"/>
      <use xlink:href="#DejaVuSans-20" transform="translate(750.634766 0)"/>
      <use xlink:href="#DejaVuSans-20" transform="translate(782.421875 0)"/>
      <use xlink:href="#DejaVuSans-28" transform="translate(814.208984 0)"/>
      <use xlink:href="#DejaVuSans-44" transform="translate(853.222656 0)"/>
      <use xlink:href="#DejaVuSans-69" transform="translate(930.224609 0)"/>
      <use xlink:href="#DejaVuSans-72" transform="translate(958.007812 0)"/>
      <use xlink:href="#DejaVuSans-69" transform="translate(999.121094 0)"/>
      <use xlink:href="#DejaVuSans-63" transform="translate(1026.904297 0)"/>
      <use xlink:href="#DejaVuSans-68" transform="translate(1081.884766 0)"/>
      <use xlink:href="#DejaVuSans-6c" transform="translate(1145.263672 0)"/>
      <use xlink:href="#DejaVuSans-65" transform="translate(1173.046875 0)"/>
      <use xlink:href="#DejaVuSans-74" transform="translate(1234.570312 0)"/>
      <use xlink:href="#DejaVuSans-20" transform="translate(1273.779297 0)"/>
      <use xlink:href="#DejaVuSans-70" transform="translate(1305.566406 0)"/>
      <use xlink:href="#DejaVuSans-61" transform="translate(1369.042969 0)"/>
      <use xlink:href="#DejaVuSans-72" transform="translate(1430.322266 0)"/>
      <use xlink:href="#DejaVuSans-74" transform="translate(1471.435547 0)"/>
      <use xlink:href="#DejaVuSans-69" transform="translate(1510.644531 0)"/>
      <use xlink:href="#DejaVuSans-74" transform="translate(1538.427734 0)"/>
      <use xlink:href="#DejaVuSans-69" transform="translate(1577.636719 0)"/>
      <use xlink:href="#DejaVuSans-6f" transform="translate(1605.419922 0)"/>
      <use xlink:href="#DejaVuSans-6e" transform="translate(1666.601562 0)"/>
      <use xlink:href="#DejaVuSans-73" transform="translate(1729.980469 0)"/>
      <use xlink:href="#DejaVuSans-20" transform="translate(1782.080078 0)"/>
      <use xlink:href="#DejaVuSans-6f" transform="translate(1813.867188 0)"/>
      <use xlink:href="#DejaVuSans-6e" transform="translate(1875.048828 0)"/>
      <use xlink:href="#DejaVuSans-6c" transform="translate(1938.427734 0)"/>
      <use xlink:href="#DejaVuSans-79" transform="translate(1966.210938 0)"/>
      <use xlink:href="#DejaVuSans-29" transform="translate(2025.390625 0)"/>
     </g>
    </g>
   </g>
   <g id="patch_8">
    <path d="M 43.78125 288.014002 
L 43.78125 62.16 
" style="fill: none; stroke: #000000; stroke-width: 0.8; stroke-linejoin: miter; stroke-linecap: square"/>
   </g>
   <g id="patch_9">
    <path d="M 324.333192 288.014002 
L 324.333192 62.16 
" style="fill: none; stroke: #000000; stroke-width: 0.8; stroke-linejoin: miter; stroke-linecap: square"/>
   </g>
   <g id="patch_10">
    <path d="M 43.78125 288.014002 
L 324.333192 288.014002 
" style="fill: none; stroke: #000000; stroke-width: 0.8; stroke-linejoin: miter; stroke-linecap: square"/>
   </g>
   <g id="patch_11">
    <path d="M 43.78125 62.16 
L 324.333192 62.16 
" style="fill: none; stroke: #000000; stroke-width: 0.8; stroke-linejoin: miter; stroke-linecap: square"/>
   </g>
   <g id="text_13">
    <!-- 0.796 -->
    <g transform="translate(66.336296 141.378623) scale(0.08 -0.08)">
     <use xlink:href="#DejaVuSans-30"/>
     <use xlink:href="#DejaVuSans-2e" transform="translate(63.623047 0)"/>
     <use xlink:href="#DejaVuSans-37" transform="translate(95.410156 0)"/>
     <use xlink:href="#DejaVuSans-39" transform="translate(159.033203 0)"/>
     <use xlink:href="#DejaVuSans-36" transform="translate(222.65625 0)"/>
    </g>
    <!-- (n=50) -->
    <g transform="translate(63.689421 150.336873) scale(0.08 -0.08)">
     <defs>
      <path id="DejaVuSans-3d" d="M 678 2906 
L 4684 2906 
L 4684 2381 
L 678 2381 
L 678 2906 
z
M 678 1631 
L 4684 1631 
L 4684 1100 
L 678 1100 
L 678 1631 
z
" transform="scale(0.015625)"/>
     </defs>
     <use xlink:href="#DejaVuSans-28"/>
     <use xlink:href="#DejaVuSans-6e" transform="translate(39.013672 0)"/>
     <use xlink:href="#DejaVuSans-3d" transform="translate(102.392578 0)"/>
     <use xlink:href="#DejaVuSans-35" transform="translate(186.181641 0)"/>
     <use xlink:href="#DejaVuSans-30" transform="translate(249.804688 0)"/>
     <use xlink:href="#DejaVuSans-29" transform="translate(313.427734 0)"/>
    </g>
   </g>
   <g id="text_14">
    <!-- 0.794 -->
    <g transform="translate(119.471133 142.533861) scale(0.08 -0.08)">
     <defs>
      <path id="DejaVuSans-34" d="M 2419 4116 
L 825 1625 
L 2419 1625 
L 2419 4116 
z
M 2253 4666 
L 3047 4666 
L 3047 1625 
L 3713 1625 
L 3713 1100 
L 3047 1100 
L 3047 0 
L 2419 0 
L 2419 1100 
L 313 1100 
L 313 1709 
L 2253 4666 
z
" transform="scale(0.015625)"/>
     </defs>
     <use xlink:href="#DejaVuSans-30"/>
     <use xlink:href="#DejaVuSans-2e" transform="translate(63.623047 0)"/>
     <use xlink:href="#DejaVuSans-37" transform="translate(95.410156 0)"/>
     <use xlink:href="#DejaVuSans-39" transform="translate(159.033203 0)"/>
     <use xlink:href="#DejaVuSans-34" transform="translate(222.65625 0)"/>
    </g>
    <!-- (n=50) -->
    <g transform="translate(116.824258 151.492111) scale(0.08 -0.08)">
     <use xlink:href="#DejaVuSans-28"/>
     <use xlink:href="#DejaVuSans-6e" transform="translate(39.013672 0)"/>
     <use xlink:href="#DejaVuSans-3d" transform="translate(102.392578 0)"/>
     <use xlink:href="#DejaVuSans-35" transform="translate(186.181641 0)"/>
     <use xlink:href="#DejaVuSans-30" transform="translate(249.804688 0)"/>
     <use xlink:href="#DejaVuSans-29" transform="translate(313.427734 0)"/>
    </g>
   </g>
   <g id="text_15">
    <!-- 0.804 -->
    <g transform="translate(172.605971 137.746966) scale(0.08 -0.08)">
     <use xlink:href="#DejaVuSans-30"/>
     <use xlink:href="#DejaVuSans-2e" transform="translate(63.623047 0)"/>
     <use xlink:href="#DejaVuSans-38" transform="translate(95.410156 0)"/>
     <use xlink:href="#DejaVuSans-30" transform="translate(159.033203 0)"/>
     <use xlink:href="#DejaVuSans-34" transform="translate(222.65625 0)"/>
    </g>
    <!-- (n=50) -->
    <g transform="translate(169.959096 146.705216) scale(0.08 -0.08)">
     <use xlink:href="#DejaVuSans-28"/>
     <use xlink:href="#DejaVuSans-6e" transform="translate(39.013672 0)"/>
     <use xlink:href="#DejaVuSans-3d" transform="translate(102.392578 0)"/>
     <use xlink:href="#DejaVuSans-35" transform="translate(186.181641 0)"/>
     <use xlink:href="#DejaVuSans-30" transform="translate(249.804688 0)"/>
     <use xlink:href="#DejaVuSans-29" transform="translate(313.427734 0)"/>
    </g>
   </g>
   <g id="text_16">
    <!-- 0.786 -->
    <g transform="translate(225.740808 145.80217) scale(0.08 -0.08)">
     <use xlink:href="#DejaVuSans-30"/>
     <use xlink:href="#DejaVuSans-2e" transform="translate(63.623047 0)"/>
     <use xlink:href="#DejaVuSans-37" transform="translate(95.410156 0)"/>
     <use xlink:href="#DejaVuSans-38" transform="translate(159.033203 0)"/>
     <use xlink:href="#DejaVuSans-36" transform="translate(222.65625 0)"/>
    </g>
    <!-- (n=50) -->
    <g transform="translate(223.093933 154.76042) scale(0.08 -0.08)">
     <use xlink:href="#DejaVuSans-28"/>
     <use xlink:href="#DejaVuSans-6e" transform="translate(39.013672 0)"/>
     <use xlink:href="#DejaVuSans-3d" transform="translate(102.392578 0)"/>
     <use xlink:href="#DejaVuSans-35" transform="translate(186.181641 0)"/>
     <use xlink:href="#DejaVuSans-30" transform="translate(249.804688 0)"/>
     <use xlink:href="#DejaVuSans-29" transform="translate(313.427734 0)"/>
    </g>
   </g>
   <g id="text_17">
    <!-- 0.776 -->
    <g transform="translate(278.875646 150.383745) scale(0.08 -0.08)">
     <use xlink:href="#DejaVuSans-30"/>
     <use xlink:href="#DejaVuSans-2e" transform="translate(63.623047 0)"/>
     <use xlink:href="#DejaVuSans-37" transform="translate(95.410156 0)"/>
     <use xlink:href="#DejaVuSans-37" transform="translate(159.033203 0)"/>
     <use xlink:href="#DejaVuSans-36" transform="translate(222.65625 0)"/>
    </g>
    <!-- (n=50) -->
    <g transform="translate(276.228771 159.341995) scale(0.08 -0.08)">
     <use xlink:href="#DejaVuSans-28"/>
     <use xlink:href="#DejaVuSans-6e" transform="translate(39.013672 0)"/>
     <use xlink:href="#DejaVuSans-3d" transform="translate(102.392578 0)"/>
     <use xlink:href="#DejaVuSans-35" transform="translate(186.181641 0)"/>
     <use xlink:href="#DejaVuSans-30" transform="translate(249.804688 0)"/>
     <use xlink:href="#DejaVuSans-29" transform="translate(313.427734 0)"/>
    </g>
   </g>
   <g id="text_18">
    <!-- LSTM -->
    <g style="fill: #1f77b4" transform="translate(165.849096 56.16) scale(0.12 -0.12)">
     <defs>
      <path id="DejaVuSans-Bold-4c" d="M 588 4666 
L 1791 4666 
L 1791 909 
L 3903 909 
L 3903 0 
L 588 0 
L 588 4666 
z
" transform="scale(0.015625)"/>
      <path id="DejaVuSans-Bold-53" d="M 3834 4519 
L 3834 3531 
Q 3450 3703 3084 3790 
Q 2719 3878 2394 3878 
Q 1963 3878 1756 3759 
Q 1550 3641 1550 3391 
Q 1550 3203 1689 3098 
Q 1828 2994 2194 2919 
L 2706 2816 
Q 3484 2659 3812 2340 
Q 4141 2022 4141 1434 
Q 4141 663 3683 286 
Q 3225 -91 2284 -91 
Q 1841 -91 1394 -6 
Q 947 78 500 244 
L 500 1259 
Q 947 1022 1364 901 
Q 1781 781 2169 781 
Q 2563 781 2772 912 
Q 2981 1044 2981 1288 
Q 2981 1506 2839 1625 
Q 2697 1744 2272 1838 
L 1806 1941 
Q 1106 2091 782 2419 
Q 459 2747 459 3303 
Q 459 4000 909 4375 
Q 1359 4750 2203 4750 
Q 2588 4750 2994 4692 
Q 3400 4634 3834 4519 
z
" transform="scale(0.015625)"/>
      <path id="DejaVuSans-Bold-54" d="M 31 4666 
L 4331 4666 
L 4331 3756 
L 2784 3756 
L 2784 0 
L 1581 0 
L 1581 3756 
L 31 3756 
L 31 4666 
z
" transform="scale(0.015625)"/>
      <path id="DejaVuSans-Bold-4d" d="M 588 4666 
L 2119 4666 
L 3181 2169 
L 4250 4666 
L 5778 4666 
L 5778 0 
L 4641 0 
L 4641 3413 
L 3566 897 
L 2803 897 
L 1728 3413 
L 1728 0 
L 588 0 
L 588 4666 
z
" transform="scale(0.015625)"/>
     </defs>
     <use xlink:href="#DejaVuSans-Bold-4c"/>
     <use xlink:href="#DejaVuSans-Bold-53" transform="translate(63.720703 0)"/>
     <use xlink:href="#DejaVuSans-Bold-54" transform="translate(135.742188 0)"/>
     <use xlink:href="#DejaVuSans-Bold-4d" transform="translate(203.955078 0)"/>
    </g>
   </g>
  </g>
  <g id="axes_2">
   <g id="patch_12">
    <path d="M 342.245279 288.014002 
L 622.797221 288.014002 
L 622.797221 62.16 
L 342.245279 62.16 
z
" style="fill: #ffffff"/>
   </g>
   <g id="patch_13">
    <path d="M 354.99764 513.868004 
L 397.50551 513.868004 
L 397.50551 151.805193 
L 354.99764 151.805193 
z
" clip-path="url(#pbd00146177)" style="fill: #ff7f0e; opacity: 0.6; stroke: #ff7f0e; stroke-width: 1.2; stroke-linejoin: miter"/>
   </g>
   <g id="patch_14">
    <path d="M 408.132478 513.868004 
L 450.640348 513.868004 
L 450.640348 154.986041 
L 408.132478 154.986041 
z
" clip-path="url(#pbd00146177)" style="fill: #ff7f0e; opacity: 0.6; stroke: #ff7f0e; stroke-width: 1.2; stroke-linejoin: miter"/>
   </g>
   <g id="patch_15">
    <path d="M 461.267315 513.868004 
L 503.775185 513.868004 
L 503.775185 148.998808 
L 461.267315 148.998808 
z
" clip-path="url(#pbd00146177)" style="fill: #ff7f0e; opacity: 0.6; stroke: #ff7f0e; stroke-width: 1.2; stroke-linejoin: miter"/>
   </g>
   <g id="patch_16">
    <path d="M 514.402152 513.868004 
L 556.910022 513.868004 
L 556.910022 183.665406 
L 514.402152 183.665406 
z
" clip-path="url(#pbd00146177)" style="fill: #ff7f0e; opacity: 0.6; stroke: #ff7f0e; stroke-width: 1.2; stroke-linejoin: miter"/>
   </g>
   <g id="patch_17">
    <path d="M 567.53699 513.868004 
L 610.04486 513.868004 
L 610.04486 162.71469 
L 567.53699 162.71469 
z
" clip-path="url(#pbd00146177)" style="fill: #ff7f0e; opacity: 0.6; stroke: #ff7f0e; stroke-width: 1.2; stroke-linejoin: miter"/>
   </g>
   <g id="matplotlib.axis_3">
    <g id="xtick_6">
     <g id="line2d_18">
      <g>
       <use xlink:href="#me3c73cf5a0" x="376.251575" y="288.014002" style="stroke: #000000; stroke-width: 0.8"/>
      </g>
     </g>
     <g id="text_19">
      <!-- FedAvg -->
      <g transform="translate(347.08234 317.236945) rotate(-30) scale(0.09 -0.09)">
       <use xlink:href="#DejaVuSans-46"/>
       <use xlink:href="#DejaVuSans-65" transform="translate(52.019531 0)"/>
       <use xlink:href="#DejaVuSans-64" transform="translate(113.542969 0)"/>
       <use xlink:href="#DejaVuSans-41" transform="translate(177.019531 0)"/>
       <use xlink:href="#DejaVuSans-76" transform="translate(239.552734 0)"/>
       <use xlink:href="#DejaVuSans-67" transform="translate(298.732422 0)"/>
      </g>
     </g>
    </g>
    <g id="xtick_7">
     <g id="line2d_19">
      <g>
       <use xlink:href="#me3c73cf5a0" x="429.386413" y="288.014002" style="stroke: #000000; stroke-width: 0.8"/>
      </g>
     </g>
     <g id="text_20">
      <!-- FedProx -->
      <g transform="translate(397.921534 318.562336) rotate(-30) scale(0.09 -0.09)">
       <use xlink:href="#DejaVuSans-46"/>
       <use xlink:href="#DejaVuSans-65" transform="translate(52.019531 0)"/>
       <use xlink:href="#DejaVuSans-64" transform="translate(113.542969 0)"/>
       <use xlink:href="#DejaVuSans-50" transform="translate(177.019531 0)"/>
       <use xlink:href="#DejaVuSans-72" transform="translate(235.572266 0)"/>
       <use xlink:href="#DejaVuSans-6f" transform="translate(274.435547 0)"/>
       <use xlink:href="#DejaVuSans-78" transform="translate(332.492188 0)"/>
      </g>
     </g>
    </g>
    <g id="xtick_8">
     <g id="line2d_20">
      <g>
       <use xlink:href="#me3c73cf5a0" x="482.52125" y="288.014002" style="stroke: #000000; stroke-width: 0.8"/>
      </g>
     </g>
     <g id="text_21">
      <!-- FedAdam -->
      <g transform="translate(445.275246 321.90007) rotate(-30) scale(0.09 -0.09)">
       <use xlink:href="#DejaVuSans-46"/>
       <use xlink:href="#DejaVuSans-65" transform="translate(52.019531 0)"/>
       <use xlink:href="#DejaVuSans-64" transform="translate(113.542969 0)"/>
       <use xlink:href="#DejaVuSans-41" transform="translate(177.019531 0)"/>
       <use xlink:href="#DejaVuSans-64" transform="translate(243.677734 0)"/>
       <use xlink:href="#DejaVuSans-61" transform="translate(307.154297 0)"/>
       <use xlink:href="#DejaVuSans-6d" transform="translate(368.433594 0)"/>
      </g>
     </g>
    </g>
    <g id="xtick_9">
     <g id="line2d_21">
      <g>
       <use xlink:href="#me3c73cf5a0" x="535.656087" y="288.014002" style="stroke: #000000; stroke-width: 0.8"/>
      </g>
     </g>
     <g id="text_22">
      <!-- SCAFFOLD -->
      <g transform="translate(493.552087 324.704836) rotate(-30) scale(0.09 -0.09)">
       <use xlink:href="#DejaVuSans-53"/>
       <use xlink:href="#DejaVuSans-43" transform="translate(63.476562 0)"/>
       <use xlink:href="#DejaVuSans-41" transform="translate(133.300781 0)"/>
       <use xlink:href="#DejaVuSans-46" transform="translate(201.708984 0)"/>
       <use xlink:href="#DejaVuSans-46" transform="translate(259.228516 0)"/>
       <use xlink:href="#DejaVuSans-4f" transform="translate(316.748047 0)"/>
       <use xlink:href="#DejaVuSans-4c" transform="translate(395.458984 0)"/>
       <use xlink:href="#DejaVuSans-44" transform="translate(451.171875 0)"/>
      </g>
     </g>
    </g>
    <g id="xtick_10">
     <g id="line2d_22">
      <g>
       <use xlink:href="#me3c73cf5a0" x="588.790925" y="288.014002" style="stroke: #000000; stroke-width: 0.8"/>
      </g>
     </g>
     <g id="text_23">
      <!-- FedDyn -->
      <g transform="translate(558.502488 317.883117) rotate(-30) scale(0.09 -0.09)">
       <use xlink:href="#DejaVuSans-46"/>
       <use xlink:href="#DejaVuSans-65" transform="translate(52.019531 0)"/>
       <use xlink:href="#DejaVuSans-64" transform="translate(113.542969 0)"/>
       <use xlink:href="#DejaVuSans-44" transform="translate(177.019531 0)"/>
       <use xlink:href="#DejaVuSans-79" transform="translate(254.021484 0)"/>
       <use xlink:href="#DejaVuSans-6e" transform="translate(313.201172 0)"/>
      </g>
     </g>
    </g>
   </g>
   <g id="matplotlib.axis_4">
    <g id="ytick_7">
     <g id="line2d_23">
      <path d="M 342.245279 288.014002 
L 622.797221 288.014002 
" clip-path="url(#pbd00146177)" style="fill: none; stroke: #b0b0b0; stroke-opacity: 0.3; stroke-width: 0.8; stroke-linecap: square"/>
     </g>
     <g id="line2d_24">
      <g>
       <use xlink:href="#m09f2cfc34c" x="342.245279" y="288.014002" style="stroke: #000000; stroke-width: 0.8"/>
      </g>
     </g>
    </g>
    <g id="ytick_8">
     <g id="line2d_25">
      <path d="M 342.245279 242.843202 
L 622.797221 242.843202 
" clip-path="url(#pbd00146177)" style="fill: none; stroke: #b0b0b0; stroke-opacity: 0.3; stroke-width: 0.8; stroke-linecap: square"/>
     </g>
     <g id="line2d_26">
      <g>
       <use xlink:href="#m09f2cfc34c" x="342.245279" y="242.843202" style="stroke: #000000; stroke-width: 0.8"/>
      </g>
     </g>
    </g>
    <g id="ytick_9">
     <g id="line2d_27">
      <path d="M 342.245279 197.672401 
L 622.797221 197.672401 
" clip-path="url(#pbd00146177)" style="fill: none; stroke: #b0b0b0; stroke-opacity: 0.3; stroke-width: 0.8; stroke-linecap: square"/>
     </g>
     <g id="line2d_28">
      <g>
       <use xlink:href="#m09f2cfc34c" x="342.245279" y="197.672401" style="stroke: #000000; stroke-width: 0.8"/>
      </g>
     </g>
    </g>
    <g id="ytick_10">
     <g id="line2d_29">
      <path d="M 342.245279 152.501601 
L 622.797221 152.501601 
" clip-path="url(#pbd00146177)" style="fill: none; stroke: #b0b0b0; stroke-opacity: 0.3; stroke-width: 0.8; stroke-linecap: square"/>
     </g>
     <g id="line2d_30">
      <g>
       <use xlink:href="#m09f2cfc34c" x="342.245279" y="152.501601" style="stroke: #000000; stroke-width: 0.8"/>
      </g>
     </g>
    </g>
    <g id="ytick_11">
     <g id="line2d_31">
      <path d="M 342.245279 107.3308 
L 622.797221 107.3308 
" clip-path="url(#pbd00146177)" style="fill: none; stroke: #b0b0b0; stroke-opacity: 0.3; stroke-width: 0.8; stroke-linecap: square"/>
     </g>
     <g id="line2d_32">
      <g>
       <use xlink:href="#m09f2cfc34c" x="342.245279" y="107.3308" style="stroke: #000000; stroke-width: 0.8"/>
      </g>
     </g>
    </g>
    <g id="ytick_12">
     <g id="line2d_33">
      <path d="M 342.245279 62.16 
L 622.797221 62.16 
" clip-path="url(#pbd00146177)" style="fill: none; stroke: #b0b0b0; stroke-opacity: 0.3; stroke-width: 0.8; stroke-linecap: square"/>
     </g>
     <g id="line2d_34">
      <g>
       <use xlink:href="#m09f2cfc34c" x="342.245279" y="62.16" style="stroke: #000000; stroke-width: 0.8"/>
      </g>
     </g>
    </g>
   </g>
   <g id="patch_18">
    <path d="M 342.245279 288.014002 
L 342.245279 62.16 
" style="fill: none; stroke: #000000; stroke-width: 0.8; stroke-linejoin: miter; stroke-linecap: square"/>
   </g>
   <g id="patch_19">
    <path d="M 622.797221 288.014002 
L 622.797221 62.16 
" style="fill: none; stroke: #000000; stroke-width: 0.8; stroke-linejoin: miter; stroke-linecap: square"/>
   </g>
   <g id="patch_20">
    <path d="M 342.245279 288.014002 
L 622.797221 288.014002 
" style="fill: none; stroke: #000000; stroke-width: 0.8; stroke-linejoin: miter; stroke-linecap: square"/>
   </g>
   <g id="patch_21">
    <path d="M 342.245279 62.16 
L 622.797221 62.16 
" style="fill: none; stroke: #000000; stroke-width: 0.8; stroke-linejoin: miter; stroke-linecap: square"/>
   </g>
   <g id="text_24">
    <!-- 0.802 -->
    <g transform="translate(364.800325 138.924653) scale(0.08 -0.08)">
     <defs>
      <path id="DejaVuSans-32" d="M 1228 531 
L 3431 531 
L 3431 0 
L 469 0 
L 469 531 
Q 828 903 1448 1529 
Q 2069 2156 2228 2338 
Q 2531 2678 2651 2914 
Q 2772 3150 2772 3378 
Q 2772 3750 2511 3984 
Q 2250 4219 1831 4219 
Q 1534 4219 1204 4116 
Q 875 4013 500 3803 
L 500 4441 
Q 881 4594 1212 4672 
Q 1544 4750 1819 4750 
Q 2544 4750 2975 4387 
Q 3406 4025 3406 3419 
Q 3406 3131 3298 2873 
Q 3191 2616 2906 2266 
Q 2828 2175 2409 1742 
Q 1991 1309 1228 531 
z
" transform="scale(0.015625)"/>
     </defs>
     <use xlink:href="#DejaVuSans-30"/>
     <use xlink:href="#DejaVuSans-2e" transform="translate(63.623047 0)"/>
     <use xlink:href="#DejaVuSans-38" transform="translate(95.410156 0)"/>
     <use xlink:href="#DejaVuSans-30" transform="translate(159.033203 0)"/>
     <use xlink:href="#DejaVuSans-32" transform="translate(222.65625 0)"/>
    </g>
    <!-- (n=50) -->
    <g transform="translate(362.15345 147.882903) scale(0.08 -0.08)">
     <use xlink:href="#DejaVuSans-28"/>
     <use xlink:href="#DejaVuSans-6e" transform="translate(39.013672 0)"/>
     <use xlink:href="#DejaVuSans-3d" transform="translate(102.392578 0)"/>
     <use xlink:href="#DejaVuSans-35" transform="translate(186.181641 0)"/>
     <use xlink:href="#DejaVuSans-30" transform="translate(249.804688 0)"/>
     <use xlink:href="#DejaVuSans-29" transform="translate(313.427734 0)"/>
    </g>
   </g>
   <g id="text_25">
    <!-- 0.794 -->
    <g transform="translate(417.935163 142.105501) scale(0.08 -0.08)">
     <use xlink:href="#DejaVuSans-30"/>
     <use xlink:href="#DejaVuSans-2e" transform="translate(63.623047 0)"/>
     <use xlink:href="#DejaVuSans-37" transform="translate(95.410156 0)"/>
     <use xlink:href="#DejaVuSans-39" transform="translate(159.033203 0)"/>
     <use xlink:href="#DejaVuSans-34" transform="translate(222.65625 0)"/>
    </g>
    <!-- (n=50) -->
    <g transform="translate(415.288288 151.063751) scale(0.08 -0.08)">
     <use xlink:href="#DejaVuSans-28"/>
     <use xlink:href="#DejaVuSans-6e" transform="translate(39.013672 0)"/>
     <use xlink:href="#DejaVuSans-3d" transform="translate(102.392578 0)"/>
     <use xlink:href="#DejaVuSans-35" transform="translate(186.181641 0)"/>
     <use xlink:href="#DejaVuSans-30" transform="translate(249.804688 0)"/>
     <use xlink:href="#DejaVuSans-29" transform="translate(313.427734 0)"/>
    </g>
   </g>
   <g id="text_26">
    <!-- 0.808 -->
    <g transform="translate(471.07 136.118268) scale(0.08 -0.08)">
     <use xlink:href="#DejaVuSans-30"/>
     <use xlink:href="#DejaVuSans-2e" transform="translate(63.623047 0)"/>
     <use xlink:href="#DejaVuSans-38" transform="translate(95.410156 0)"/>
     <use xlink:href="#DejaVuSans-30" transform="translate(159.033203 0)"/>
     <use xlink:href="#DejaVuSans-38" transform="translate(222.65625 0)"/>
    </g>
    <!-- (n=50) -->
    <g transform="translate(468.423125 145.076518) scale(0.08 -0.08)">
     <use xlink:href="#DejaVuSans-28"/>
     <use xlink:href="#DejaVuSans-6e" transform="translate(39.013672 0)"/>
     <use xlink:href="#DejaVuSans-3d" transform="translate(102.392578 0)"/>
     <use xlink:href="#DejaVuSans-35" transform="translate(186.181641 0)"/>
     <use xlink:href="#DejaVuSans-30" transform="translate(249.804688 0)"/>
     <use xlink:href="#DejaVuSans-29" transform="translate(313.427734 0)"/>
    </g>
   </g>
   <g id="text_27">
    <!-- 0.731 -->
    <g transform="translate(524.204837 170.784866) scale(0.08 -0.08)">
     <defs>
      <path id="DejaVuSans-33" d="M 2597 2516 
Q 3050 2419 3304 2112 
Q 3559 1806 3559 1356 
Q 3559 666 3084 287 
Q 2609 -91 1734 -91 
Q 1441 -91 1130 -33 
Q 819 25 488 141 
L 488 750 
Q 750 597 1062 519 
Q 1375 441 1716 441 
Q 2309 441 2620 675 
Q 2931 909 2931 1356 
Q 2931 1769 2642 2001 
Q 2353 2234 1838 2234 
L 1294 2234 
L 1294 2753 
L 1863 2753 
Q 2328 2753 2575 2939 
Q 2822 3125 2822 3475 
Q 2822 3834 2567 4026 
Q 2313 4219 1838 4219 
Q 1578 4219 1281 4162 
Q 984 4106 628 3988 
L 628 4550 
Q 988 4650 1302 4700 
Q 1616 4750 1894 4750 
Q 2613 4750 3031 4423 
Q 3450 4097 3450 3541 
Q 3450 3153 3228 2886 
Q 3006 2619 2597 2516 
z
" transform="scale(0.015625)"/>
     </defs>
     <use xlink:href="#DejaVuSans-30"/>
     <use xlink:href="#DejaVuSans-2e" transform="translate(63.623047 0)"/>
     <use xlink:href="#DejaVuSans-37" transform="translate(95.410156 0)"/>
     <use xlink:href="#DejaVuSans-33" transform="translate(159.033203 0)"/>
     <use xlink:href="#DejaVuSans-31" transform="translate(222.65625 0)"/>
    </g>
    <!-- (n=50) -->
    <g transform="translate(521.557962 179.743116) scale(0.08 -0.08)">
     <use xlink:href="#DejaVuSans-28"/>
     <use xlink:href="#DejaVuSans-6e" transform="translate(39.013672 0)"/>
     <use xlink:href="#DejaVuSans-3d" transform="translate(102.392578 0)"/>
     <use xlink:href="#DejaVuSans-35" transform="translate(186.181641 0)"/>
     <use xlink:href="#DejaVuSans-30" transform="translate(249.804688 0)"/>
     <use xlink:href="#DejaVuSans-29" transform="translate(313.427734 0)"/>
    </g>
   </g>
   <g id="text_28">
    <!-- 0.777 -->
    <g transform="translate(577.339675 149.83415) scale(0.08 -0.08)">
     <use xlink:href="#DejaVuSans-30"/>
     <use xlink:href="#DejaVuSans-2e" transform="translate(63.623047 0)"/>
     <use xlink:href="#DejaVuSans-37" transform="translate(95.410156 0)"/>
     <use xlink:href="#DejaVuSans-37" transform="translate(159.033203 0)"/>
     <use xlink:href="#DejaVuSans-37" transform="translate(222.65625 0)"/>
    </g>
    <!-- (n=50) -->
    <g transform="translate(574.6928 158.7924) scale(0.08 -0.08)">
     <use xlink:href="#DejaVuSans-28"/>
     <use xlink:href="#DejaVuSans-6e" transform="translate(39.013672 0)"/>
     <use xlink:href="#DejaVuSans-3d" transform="translate(102.392578 0)"/>
     <use xlink:href="#DejaVuSans-35" transform="translate(186.181641 0)"/>
     <use xlink:href="#DejaVuSans-30" transform="translate(249.804688 0)"/>
     <use xlink:href="#DejaVuSans-29" transform="translate(313.427734 0)"/>
    </g>
   </g>
   <g id="text_29">
    <!-- Mamba -->
    <g style="fill: #ff7f0e" transform="translate(457.905313 56.16) scale(0.12 -0.12)">
     <defs>
      <path id="DejaVuSans-Bold-61" d="M 2106 1575 
Q 1756 1575 1579 1456 
Q 1403 1338 1403 1106 
Q 1403 894 1545 773 
Q 1688 653 1941 653 
Q 2256 653 2472 879 
Q 2688 1106 2688 1447 
L 2688 1575 
L 2106 1575 
z
M 3816 1997 
L 3816 0 
L 2688 0 
L 2688 519 
Q 2463 200 2181 54 
Q 1900 -91 1497 -91 
Q 953 -91 614 226 
Q 275 544 275 1050 
Q 275 1666 698 1953 
Q 1122 2241 2028 2241 
L 2688 2241 
L 2688 2328 
Q 2688 2594 2478 2717 
Q 2269 2841 1825 2841 
Q 1466 2841 1156 2769 
Q 847 2697 581 2553 
L 581 3406 
Q 941 3494 1303 3539 
Q 1666 3584 2028 3584 
Q 2975 3584 3395 3211 
Q 3816 2838 3816 1997 
z
" transform="scale(0.015625)"/>
      <path id="DejaVuSans-Bold-6d" d="M 3781 2919 
Q 3994 3244 4286 3414 
Q 4578 3584 4928 3584 
Q 5531 3584 5847 3212 
Q 6163 2841 6163 2131 
L 6163 0 
L 5038 0 
L 5038 1825 
Q 5041 1866 5042 1909 
Q 5044 1953 5044 2034 
Q 5044 2406 4934 2573 
Q 4825 2741 4581 2741 
Q 4263 2741 4089 2478 
Q 3916 2216 3909 1719 
L 3909 0 
L 2784 0 
L 2784 1825 
Q 2784 2406 2684 2573 
Q 2584 2741 2328 2741 
Q 2006 2741 1831 2477 
Q 1656 2213 1656 1722 
L 1656 0 
L 531 0 
L 531 3500 
L 1656 3500 
L 1656 2988 
Q 1863 3284 2130 3434 
Q 2397 3584 2719 3584 
Q 3081 3584 3359 3409 
Q 3638 3234 3781 2919 
z
" transform="scale(0.015625)"/>
      <path id="DejaVuSans-Bold-62" d="M 2400 722 
Q 2759 722 2948 984 
Q 3138 1247 3138 1747 
Q 3138 2247 2948 2509 
Q 2759 2772 2400 2772 
Q 2041 2772 1848 2508 
Q 1656 2244 1656 1747 
Q 1656 1250 1848 986 
Q 2041 722 2400 722 
z
M 1656 2988 
Q 1888 3294 2169 3439 
Q 2450 3584 2816 3584 
Q 3463 3584 3878 3070 
Q 4294 2556 4294 1747 
Q 4294 938 3878 423 
Q 3463 -91 2816 -91 
Q 2450 -91 2169 54 
Q 1888 200 1656 506 
L 1656 0 
L 538 0 
L 538 4863 
L 1656 4863 
L 1656 2988 
z
" transform="scale(0.015625)"/>
     </defs>
     <use xlink:href="#DejaVuSans-Bold-4d"/>
     <use xlink:href="#DejaVuSans-Bold-61" transform="translate(99.511719 0)"/>
     <use xlink:href="#DejaVuSans-Bold-6d" transform="translate(166.992188 0)"/>
     <use xlink:href="#DejaVuSans-Bold-62" transform="translate(271.191406 0)"/>
     <use xlink:href="#DejaVuSans-Bold-61" transform="translate(342.773438 0)"/>
    </g>
   </g>
  </g>
  <g id="axes_3">
   <g id="patch_22">
    <path d="M 640.709308 288.014002 
L 921.26125 288.014002 
L 921.26125 62.16 
L 640.709308 62.16 
z
" style="fill: #ffffff"/>
   </g>
   <g id="patch_23">
    <path d="M 653.461669 513.868004 
L 695.969539 513.868004 
L 695.969539 208.358796 
L 653.461669 208.358796 
z
" clip-path="url(#p6c6114b1d1)" style="fill: #d62728; opacity: 0.6; stroke: #d62728; stroke-width: 1.2; stroke-linejoin: miter"/>
   </g>
   <g id="patch_24">
    <path d="M 706.596507 513.868004 
L 749.104377 513.868004 
L 749.104377 210.663169 
L 706.596507 210.663169 
z
" clip-path="url(#p6c6114b1d1)" style="fill: #d62728; opacity: 0.6; stroke: #d62728; stroke-width: 1.2; stroke-linejoin: miter"/>
   </g>
   <g id="patch_25">
    <path d="M 759.731344 513.868004 
L 802.239214 513.868004 
L 802.239214 200.968213 
L 759.731344 200.968213 
z
" clip-path="url(#p6c6114b1d1)" style="fill: #d62728; opacity: 0.6; stroke: #d62728; stroke-width: 1.2; stroke-linejoin: miter"/>
   </g>
   <g id="patch_26">
    <path d="M 812.866182 513.868004 
L 855.374052 513.868004 
L 855.374052 219.599742 
L 812.866182 219.599742 
z
" clip-path="url(#p6c6114b1d1)" style="fill: #d62728; opacity: 0.6; stroke: #d62728; stroke-width: 1.2; stroke-linejoin: miter"/>
   </g>
   <g id="patch_27">
    <path d="M 866.001019 513.868004 
L 908.508889 513.868004 
L 908.508889 214.792298 
L 866.001019 214.792298 
z
" clip-path="url(#p6c6114b1d1)" style="fill: #d62728; opacity: 0.6; stroke: #d62728; stroke-width: 1.2; stroke-linejoin: miter"/>
   </g>
   <g id="matplotlib.axis_5">
    <g id="xtick_11">
     <g id="line2d_35">
      <g>
       <use xlink:href="#me3c73cf5a0" x="674.715604" y="288.014002" style="stroke: #000000; stroke-width: 0.8"/>
      </g>
     </g>
     <g id="text_30">
      <!-- FedAvg -->
      <g transform="translate(645.546369 317.236945) rotate(-30) scale(0.09 -0.09)">
       <use xlink:href="#DejaVuSans-46"/>
       <use xlink:href="#DejaVuSans-65" transform="translate(52.019531 0)"/>
       <use xlink:href="#DejaVuSans-64" transform="translate(113.542969 0)"/>
       <use xlink:href="#DejaVuSans-41" transform="translate(177.019531 0)"/>
       <use xlink:href="#DejaVuSans-76" transform="translate(239.552734 0)"/>
       <use xlink:href="#DejaVuSans-67" transform="translate(298.732422 0)"/>
      </g>
     </g>
    </g>
    <g id="xtick_12">
     <g id="line2d_36">
      <g>
       <use xlink:href="#me3c73cf5a0" x="727.850442" y="288.014002" style="stroke: #000000; stroke-width: 0.8"/>
      </g>
     </g>
     <g id="text_31">
      <!-- FedProx -->
      <g transform="translate(696.385563 318.562336) rotate(-30) scale(0.09 -0.09)">
       <use xlink:href="#DejaVuSans-46"/>
       <use xlink:href="#DejaVuSans-65" transform="translate(52.019531 0)"/>
       <use xlink:href="#DejaVuSans-64" transform="translate(113.542969 0)"/>
       <use xlink:href="#DejaVuSans-50" transform="translate(177.019531 0)"/>
       <use xlink:href="#DejaVuSans-72" transform="translate(235.572266 0)"/>
       <use xlink:href="#DejaVuSans-6f" transform="translate(274.435547 0)"/>
       <use xlink:href="#DejaVuSans-78" transform="translate(332.492188 0)"/>
      </g>
     </g>
    </g>
    <g id="xtick_13">
     <g id="line2d_37">
      <g>
       <use xlink:href="#me3c73cf5a0" x="780.985279" y="288.014002" style="stroke: #000000; stroke-width: 0.8"/>
      </g>
     </g>
     <g id="text_32">
      <!-- FedAdam -->
      <g transform="translate(743.739275 321.90007) rotate(-30) scale(0.09 -0.09)">
       <use xlink:href="#DejaVuSans-46"/>
       <use xlink:href="#DejaVuSans-65" transform="translate(52.019531 0)"/>
       <use xlink:href="#DejaVuSans-64" transform="translate(113.542969 0)"/>
       <use xlink:href="#DejaVuSans-41" transform="translate(177.019531 0)"/>
       <use xlink:href="#DejaVuSans-64" transform="translate(243.677734 0)"/>
       <use xlink:href="#DejaVuSans-61" transform="translate(307.154297 0)"/>
       <use xlink:href="#DejaVuSans-6d" transform="translate(368.433594 0)"/>
      </g>
     </g>
    </g>
    <g id="xtick_14">
     <g id="line2d_38">
      <g>
       <use xlink:href="#me3c73cf5a0" x="834.120117" y="288.014002" style="stroke: #000000; stroke-width: 0.8"/>
      </g>
     </g>
     <g id="text_33">
      <!-- SCAFFOLD -->
      <g transform="translate(792.016116 324.704836) rotate(-30) scale(0.09 -0.09)">
       <use xlink:href="#DejaVuSans-53"/>
       <use xlink:href="#DejaVuSans-43" transform="translate(63.476562 0)"/>
       <use xlink:href="#DejaVuSans-41" transform="translate(133.300781 0)"/>
       <use xlink:href="#DejaVuSans-46" transform="translate(201.708984 0)"/>
       <use xlink:href="#DejaVuSans-46" transform="translate(259.228516 0)"/>
       <use xlink:href="#DejaVuSans-4f" transform="translate(316.748047 0)"/>
       <use xlink:href="#DejaVuSans-4c" transform="translate(395.458984 0)"/>
       <use xlink:href="#DejaVuSans-44" transform="translate(451.171875 0)"/>
      </g>
     </g>
    </g>
    <g id="xtick_15">
     <g id="line2d_39">
      <g>
       <use xlink:href="#me3c73cf5a0" x="887.254954" y="288.014002" style="stroke: #000000; stroke-width: 0.8"/>
      </g>
     </g>
     <g id="text_34">
      <!-- FedDyn -->
      <g transform="translate(856.966517 317.883117) rotate(-30) scale(0.09 -0.09)">
       <use xlink:href="#DejaVuSans-46"/>
       <use xlink:href="#DejaVuSans-65" transform="translate(52.019531 0)"/>
       <use xlink:href="#DejaVuSans-64" transform="translate(113.542969 0)"/>
       <use xlink:href="#DejaVuSans-44" transform="translate(177.019531 0)"/>
       <use xlink:href="#DejaVuSans-79" transform="translate(254.021484 0)"/>
       <use xlink:href="#DejaVuSans-6e" transform="translate(313.201172 0)"/>
      </g>
     </g>
    </g>
   </g>
   <g id="matplotlib.axis_6">
    <g id="ytick_13">
     <g id="line2d_40">
      <path d="M 640.709308 288.014002 
L 921.26125 288.014002 
" clip-path="url(#p6c6114b1d1)" style="fill: none; stroke: #b0b0b0; stroke-opacity: 0.3; stroke-width: 0.8; stroke-linecap: square"/>
     </g>
     <g id="line2d_41">
      <g>
       <use xlink:href="#m09f2cfc34c" x="640.709308" y="288.014002" style="stroke: #000000; stroke-width: 0.8"/>
      </g>
     </g>
    </g>
    <g id="ytick_14">
     <g id="line2d_42">
      <path d="M 640.709308 242.843202 
L 921.26125 242.843202 
" clip-path="url(#p6c6114b1d1)" style="fill: none; stroke: #b0b0b0; stroke-opacity: 0.3; stroke-width: 0.8; stroke-linecap: square"/>
     </g>
     <g id="line2d_43">
      <g>
       <use xlink:href="#m09f2cfc34c" x="640.709308" y="242.843202" style="stroke: #000000; stroke-width: 0.8"/>
      </g>
     </g>
    </g>
    <g id="ytick_15">
     <g id="line2d_44">
      <path d="M 640.709308 197.672401 
L 921.26125 197.672401 
" clip-path="url(#p6c6114b1d1)" style="fill: none; stroke: #b0b0b0; stroke-opacity: 0.3; stroke-width: 0.8; stroke-linecap: square"/>
     </g>
     <g id="line2d_45">
      <g>
       <use xlink:href="#m09f2cfc34c" x="640.709308" y="197.672401" style="stroke: #000000; stroke-width: 0.8"/>
      </g>
     </g>
    </g>
    <g id="ytick_16">
     <g id="line2d_46">
      <path d="M 640.709308 152.501601 
L 921.26125 152.501601 
" clip-path="url(#p6c6114b1d1)" style="fill: none; stroke: #b0b0b0; stroke-opacity: 0.3; stroke-width: 0.8; stroke-linecap: square"/>
     </g>
     <g id="line2d_47">
      <g>
       <use xlink:href="#m09f2cfc34c" x="640.709308" y="152.501601" style="stroke: #000000; stroke-width: 0.8"/>
      </g>
     </g>
    </g>
    <g id="ytick_17">
     <g id="line2d_48">
      <path d="M 640.709308 107.3308 
L 921.26125 107.3308 
" clip-path="url(#p6c6114b1d1)" style="fill: none; stroke: #b0b0b0; stroke-opacity: 0.3; stroke-width: 0.8; stroke-linecap: square"/>
     </g>
     <g id="line2d_49">
      <g>
       <use xlink:href="#m09f2cfc34c" x="640.709308" y="107.3308" style="stroke: #000000; stroke-width: 0.8"/>
      </g>
     </g>
    </g>
    <g id="ytick_18">
     <g id="line2d_50">
      <path d="M 640.709308 62.16 
L 921.26125 62.16 
" clip-path="url(#p6c6114b1d1)" style="fill: none; stroke: #b0b0b0; stroke-opacity: 0.3; stroke-width: 0.8; stroke-linecap: square"/>
     </g>
     <g id="line2d_51">
      <g>
       <use xlink:href="#m09f2cfc34c" x="640.709308" y="62.16" style="stroke: #000000; stroke-width: 0.8"/>
      </g>
     </g>
    </g>
   </g>
   <g id="patch_28">
    <path d="M 640.709308 288.014002 
L 640.709308 62.16 
" style="fill: none; stroke: #000000; stroke-width: 0.8; stroke-linejoin: miter; stroke-linecap: square"/>
   </g>
   <g id="patch_29">
    <path d="M 921.26125 288.014002 
L 921.26125 62.16 
" style="fill: none; stroke: #000000; stroke-width: 0.8; stroke-linejoin: miter; stroke-linecap: square"/>
   </g>
   <g id="patch_30">
    <path d="M 640.709308 288.014002 
L 921.26125 288.014002 
" style="fill: none; stroke: #000000; stroke-width: 0.8; stroke-linejoin: miter; stroke-linecap: square"/>
   </g>
   <g id="patch_31">
    <path d="M 640.709308 62.16 
L 921.26125 62.16 
" style="fill: none; stroke: #000000; stroke-width: 0.8; stroke-linejoin: miter; stroke-linecap: square"/>
   </g>
   <g id="text_35">
    <!-- 0.676 -->
    <g transform="translate(663.264354 195.478256) scale(0.08 -0.08)">
     <use xlink:href="#DejaVuSans-30"/>
     <use xlink:href="#DejaVuSans-2e" transform="translate(63.623047 0)"/>
     <use xlink:href="#DejaVuSans-36" transform="translate(95.410156 0)"/>
     <use xlink:href="#DejaVuSans-37" transform="translate(159.033203 0)"/>
     <use xlink:href="#DejaVuSans-36" transform="translate(222.65625 0)"/>
    </g>
    <!-- (n=50) -->
    <g transform="translate(660.617479 204.436506) scale(0.08 -0.08)">
     <use xlink:href="#DejaVuSans-28"/>
     <use xlink:href="#DejaVuSans-6e" transform="translate(39.013672 0)"/>
     <use xlink:href="#DejaVuSans-3d" transform="translate(102.392578 0)"/>
     <use xlink:href="#DejaVuSans-35" transform="translate(186.181641 0)"/>
     <use xlink:href="#DejaVuSans-30" transform="translate(249.804688 0)"/>
     <use xlink:href="#DejaVuSans-29" transform="translate(313.427734 0)"/>
    </g>
   </g>
   <g id="text_36">
    <!-- 0.671 -->
    <g transform="translate(716.399192 197.782629) scale(0.08 -0.08)">
     <use xlink:href="#DejaVuSans-30"/>
     <use xlink:href="#DejaVuSans-2e" transform="translate(63.623047 0)"/>
     <use xlink:href="#DejaVuSans-36" transform="translate(95.410156 0)"/>
     <use xlink:href="#DejaVuSans-37" transform="translate(159.033203 0)"/>
     <use xlink:href="#DejaVuSans-31" transform="translate(222.65625 0)"/>
    </g>
    <!-- (n=50) -->
    <g transform="translate(713.752317 206.740879) scale(0.08 -0.08)">
     <use xlink:href="#DejaVuSans-28"/>
     <use xlink:href="#DejaVuSans-6e" transform="translate(39.013672 0)"/>
     <use xlink:href="#DejaVuSans-3d" transform="translate(102.392578 0)"/>
     <use xlink:href="#DejaVuSans-35" transform="translate(186.181641 0)"/>
     <use xlink:href="#DejaVuSans-30" transform="translate(249.804688 0)"/>
     <use xlink:href="#DejaVuSans-29" transform="translate(313.427734 0)"/>
    </g>
   </g>
   <g id="text_37">
    <!-- 0.693 -->
    <g transform="translate(769.534029 188.087672) scale(0.08 -0.08)">
     <use xlink:href="#DejaVuSans-30"/>
     <use xlink:href="#DejaVuSans-2e" transform="translate(63.623047 0)"/>
     <use xlink:href="#DejaVuSans-36" transform="translate(95.410156 0)"/>
     <use xlink:href="#DejaVuSans-39" transform="translate(159.033203 0)"/>
     <use xlink:href="#DejaVuSans-33" transform="translate(222.65625 0)"/>
    </g>
    <!-- (n=50) -->
    <g transform="translate(766.887154 197.045922) scale(0.08 -0.08)">
     <use xlink:href="#DejaVuSans-28"/>
     <use xlink:href="#DejaVuSans-6e" transform="translate(39.013672 0)"/>
     <use xlink:href="#DejaVuSans-3d" transform="translate(102.392578 0)"/>
     <use xlink:href="#DejaVuSans-35" transform="translate(186.181641 0)"/>
     <use xlink:href="#DejaVuSans-30" transform="translate(249.804688 0)"/>
     <use xlink:href="#DejaVuSans-29" transform="translate(313.427734 0)"/>
    </g>
   </g>
   <g id="text_38">
    <!-- 0.651 -->
    <g transform="translate(822.668867 206.719202) scale(0.08 -0.08)">
     <use xlink:href="#DejaVuSans-30"/>
     <use xlink:href="#DejaVuSans-2e" transform="translate(63.623047 0)"/>
     <use xlink:href="#DejaVuSans-36" transform="translate(95.410156 0)"/>
     <use xlink:href="#DejaVuSans-35" transform="translate(159.033203 0)"/>
     <use xlink:href="#DejaVuSans-31" transform="translate(222.65625 0)"/>
    </g>
    <!-- (n=50) -->
    <g transform="translate(820.021992 215.677452) scale(0.08 -0.08)">
     <use xlink:href="#DejaVuSans-28"/>
     <use xlink:href="#DejaVuSans-6e" transform="translate(39.013672 0)"/>
     <use xlink:href="#DejaVuSans-3d" transform="translate(102.392578 0)"/>
     <use xlink:href="#DejaVuSans-35" transform="translate(186.181641 0)"/>
     <use xlink:href="#DejaVuSans-30" transform="translate(249.804688 0)"/>
     <use xlink:href="#DejaVuSans-29" transform="translate(313.427734 0)"/>
    </g>
   </g>
   <g id="text_39">
    <!-- 0.662 -->
    <g transform="translate(875.803704 201.911758) scale(0.08 -0.08)">
     <use xlink:href="#DejaVuSans-30"/>
     <use xlink:href="#DejaVuSans-2e" transform="translate(63.623047 0)"/>
     <use xlink:href="#DejaVuSans-36" transform="translate(95.410156 0)"/>
     <use xlink:href="#DejaVuSans-36" transform="translate(159.033203 0)"/>
     <use xlink:href="#DejaVuSans-32" transform="translate(222.65625 0)"/>
    </g>
    <!-- (n=50) -->
    <g transform="translate(873.156829 210.870008) scale(0.08 -0.08)">
     <use xlink:href="#DejaVuSans-28"/>
     <use xlink:href="#DejaVuSans-6e" transform="translate(39.013672 0)"/>
     <use xlink:href="#DejaVuSans-3d" transform="translate(102.392578 0)"/>
     <use xlink:href="#DejaVuSans-35" transform="translate(186.181641 0)"/>
     <use xlink:href="#DejaVuSans-30" transform="translate(249.804688 0)"/>
     <use xlink:href="#DejaVuSans-29" transform="translate(313.427734 0)"/>
    </g>
   </g>
   <g id="text_40">
    <!-- Spiking-SSM -->
    <g style="fill: #d62728" transform="translate(738.867154 56.16) scale(0.12 -0.12)">
     <defs>
      <path id="DejaVuSans-Bold-70" d="M 1656 506 
L 1656 -1331 
L 538 -1331 
L 538 3500 
L 1656 3500 
L 1656 2988 
Q 1888 3294 2169 3439 
Q 2450 3584 2816 3584 
Q 3463 3584 3878 3070 
Q 4294 2556 4294 1747 
Q 4294 938 3878 423 
Q 3463 -91 2816 -91 
Q 2450 -91 2169 54 
Q 1888 200 1656 506 
z
M 2400 2772 
Q 2041 2772 1848 2508 
Q 1656 2244 1656 1747 
Q 1656 1250 1848 986 
Q 2041 722 2400 722 
Q 2759 722 2948 984 
Q 3138 1247 3138 1747 
Q 3138 2247 2948 2509 
Q 2759 2772 2400 2772 
z
" transform="scale(0.015625)"/>
      <path id="DejaVuSans-Bold-69" d="M 538 3500 
L 1656 3500 
L 1656 0 
L 538 0 
L 538 3500 
z
M 538 4863 
L 1656 4863 
L 1656 3950 
L 538 3950 
L 538 4863 
z
" transform="scale(0.015625)"/>
      <path id="DejaVuSans-Bold-6b" d="M 538 4863 
L 1656 4863 
L 1656 2216 
L 2944 3500 
L 4244 3500 
L 2534 1894 
L 4378 0 
L 3022 0 
L 1656 1459 
L 1656 0 
L 538 0 
L 538 4863 
z
" transform="scale(0.015625)"/>
      <path id="DejaVuSans-Bold-6e" d="M 4056 2131 
L 4056 0 
L 2931 0 
L 2931 347 
L 2931 1631 
Q 2931 2084 2911 2256 
Q 2891 2428 2841 2509 
Q 2775 2619 2662 2680 
Q 2550 2741 2406 2741 
Q 2056 2741 1856 2470 
Q 1656 2200 1656 1722 
L 1656 0 
L 538 0 
L 538 3500 
L 1656 3500 
L 1656 2988 
Q 1909 3294 2193 3439 
Q 2478 3584 2822 3584 
Q 3428 3584 3742 3212 
Q 4056 2841 4056 2131 
z
" transform="scale(0.015625)"/>
      <path id="DejaVuSans-Bold-67" d="M 2919 594 
Q 2688 288 2409 144 
Q 2131 0 1766 0 
Q 1125 0 706 504 
Q 288 1009 288 1791 
Q 288 2575 706 3076 
Q 1125 3578 1766 3578 
Q 2131 3578 2409 3434 
Q 2688 3291 2919 2981 
L 2919 3500 
L 4044 3500 
L 4044 353 
Q 4044 -491 3511 -936 
Q 2978 -1381 1966 -1381 
Q 1638 -1381 1331 -1331 
Q 1025 -1281 716 -1178 
L 716 -306 
Q 1009 -475 1290 -558 
Q 1572 -641 1856 -641 
Q 2406 -641 2662 -400 
Q 2919 -159 2919 353 
L 2919 594 
z
M 2181 2772 
Q 1834 2772 1640 2515 
Q 1447 2259 1447 1791 
Q 1447 1309 1634 1061 
Q 1822 813 2181 813 
Q 2531 813 2725 1069 
Q 2919 1325 2919 1791 
Q 2919 2259 2725 2515 
Q 2531 2772 2181 2772 
z
" transform="scale(0.015625)"/>
      <path id="DejaVuSans-Bold-2d" d="M 347 2297 
L 2309 2297 
L 2309 1388 
L 347 1388 
L 347 2297 
z
" transform="scale(0.015625)"/>
     </defs>
     <use xlink:href="#DejaVuSans-Bold-53"/>
     <use xlink:href="#DejaVuSans-Bold-70" transform="translate(72.021484 0)"/>
     <use xlink:href="#DejaVuSans-Bold-69" transform="translate(143.603516 0)"/>
     <use xlink:href="#DejaVuSans-Bold-6b" transform="translate(177.880859 0)"/>
     <use xlink:href="#DejaVuSans-Bold-69" transform="translate(244.384766 0)"/>
     <use xlink:href="#DejaVuSans-Bold-6e" transform="translate(278.662109 0)"/>
     <use xlink:href="#DejaVuSans-Bold-67" transform="translate(349.853516 0)"/>
     <use xlink:href="#DejaVuSans-Bold-2d" transform="translate(421.435547 0)"/>
     <use xlink:href="#DejaVuSans-Bold-53" transform="translate(462.939453 0)"/>
     <use xlink:href="#DejaVuSans-Bold-53" transform="translate(530.460938 0)"/>
     <use xlink:href="#DejaVuSans-Bold-4d" transform="translate(602.482422 0)"/>
    </g>
   </g>
  </g>
  <g id="text_41">
   <!-- Phase 5 — algorithm ranking per architecture (Dirichlet stress avg, test AUC) -->
   <g transform="translate(251.901328 15.558281) scale(0.11 -0.11)">
    <defs>
     <path id="DejaVuSans-2014" d="M 313 1978 
L 6088 1978 
L 6088 1528 
L 313 1528 
L 313 1978 
z
" transform="scale(0.015625)"/>
     <path id="DejaVuSans-6b" d="M 581 4863 
L 1159 4863 
L 1159 1991 
L 2875 3500 
L 3609 3500 
L 1753 1863 
L 3688 0 
L 2938 0 
L 1159 1709 
L 1159 0 
L 581 0 
L 581 4863 
z
" transform="scale(0.015625)"/>
     <path id="DejaVuSans-75" d="M 544 1381 
L 544 3500 
L 1119 3500 
L 1119 1403 
Q 1119 906 1312 657 
Q 1506 409 1894 409 
Q 2359 409 2629 706 
Q 2900 1003 2900 1516 
L 2900 3500 
L 3475 3500 
L 3475 0 
L 2900 0 
L 2900 538 
Q 2691 219 2414 64 
Q 2138 -91 1772 -91 
Q 1169 -91 856 284 
Q 544 659 544 1381 
z
M 1991 3584 
L 1991 3584 
z
" transform="scale(0.015625)"/>
     <path id="DejaVuSans-2c" d="M 750 794 
L 1409 794 
L 1409 256 
L 897 -744 
L 494 -744 
L 750 256 
L 750 794 
z
" transform="scale(0.015625)"/>
    </defs>
    <use xlink:href="#DejaVuSans-50"/>
    <use xlink:href="#DejaVuSans-68" transform="translate(60.302734 0)"/>
    <use xlink:href="#DejaVuSans-61" transform="translate(123.681641 0)"/>
    <use xlink:href="#DejaVuSans-73" transform="translate(184.960938 0)"/>
    <use xlink:href="#DejaVuSans-65" transform="translate(237.060547 0)"/>
    <use xlink:href="#DejaVuSans-20" transform="translate(298.583984 0)"/>
    <use xlink:href="#DejaVuSans-35" transform="translate(330.371094 0)"/>
    <use xlink:href="#DejaVuSans-20" transform="translate(393.994141 0)"/>
    <use xlink:href="#DejaVuSans-2014" transform="translate(425.78125 0)"/>
    <use xlink:href="#DejaVuSans-20" transform="translate(525.78125 0)"/>
    <use xlink:href="#DejaVuSans-61" transform="translate(557.568359 0)"/>
    <use xlink:href="#DejaVuSans-6c" transform="translate(618.847656 0)"/>
    <use xlink:href="#DejaVuSans-67" transform="translate(646.630859 0)"/>
    <use xlink:href="#DejaVuSans-6f" transform="translate(710.107422 0)"/>
    <use xlink:href="#DejaVuSans-72" transform="translate(771.289062 0)"/>
    <use xlink:href="#DejaVuSans-69" transform="translate(812.402344 0)"/>
    <use xlink:href="#DejaVuSans-74" transform="translate(840.185547 0)"/>
    <use xlink:href="#DejaVuSans-68" transform="translate(879.394531 0)"/>
    <use xlink:href="#DejaVuSans-6d" transform="translate(942.773438 0)"/>
    <use xlink:href="#DejaVuSans-20" transform="translate(1040.185547 0)"/>
    <use xlink:href="#DejaVuSans-72" transform="translate(1071.972656 0)"/>
    <use xlink:href="#DejaVuSans-61" transform="translate(1113.085938 0)"/>
    <use xlink:href="#DejaVuSans-6e" transform="translate(1174.365234 0)"/>
    <use xlink:href="#DejaVuSans-6b" transform="translate(1237.744141 0)"/>
    <use xlink:href="#DejaVuSans-69" transform="translate(1295.654297 0)"/>
    <use xlink:href="#DejaVuSans-6e" transform="translate(1323.4375 0)"/>
    <use xlink:href="#DejaVuSans-67" transform="translate(1386.816406 0)"/>
    <use xlink:href="#DejaVuSans-20" transform="translate(1450.292969 0)"/>
    <use xlink:href="#DejaVuSans-70" transform="translate(1482.080078 0)"/>
    <use xlink:href="#DejaVuSans-65" transform="translate(1545.556641 0)"/>
    <use xlink:href="#DejaVuSans-72" transform="translate(1607.080078 0)"/>
    <use xlink:href="#DejaVuSans-20" transform="translate(1648.193359 0)"/>
    <use xlink:href="#DejaVuSans-61" transform="translate(1679.980469 0)"/>
    <use xlink:href="#DejaVuSans-72" transform="translate(1741.259766 0)"/>
    <use xlink:href="#DejaVuSans-63" transform="translate(1780.123047 0)"/>
    <use xlink:href="#DejaVuSans-68" transform="translate(1835.103516 0)"/>
    <use xlink:href="#DejaVuSans-69" transform="translate(1898.482422 0)"/>
    <use xlink:href="#DejaVuSans-74" transform="translate(1926.265625 0)"/>
    <use xlink:href="#DejaVuSans-65" transform="translate(1965.474609 0)"/>
    <use xlink:href="#DejaVuSans-63" transform="translate(2026.998047 0)"/>
    <use xlink:href="#DejaVuSans-74" transform="translate(2081.978516 0)"/>
    <use xlink:href="#DejaVuSans-75" transform="translate(2121.1875 0)"/>
    <use xlink:href="#DejaVuSans-72" transform="translate(2184.566406 0)"/>
    <use xlink:href="#DejaVuSans-65" transform="translate(2223.429688 0)"/>
    <use xlink:href="#DejaVuSans-20" transform="translate(2284.953125 0)"/>
    <use xlink:href="#DejaVuSans-28" transform="translate(2316.740234 0)"/>
    <use xlink:href="#DejaVuSans-44" transform="translate(2355.753906 0)"/>
    <use xlink:href="#DejaVuSans-69" transform="translate(2432.755859 0)"/>
    <use xlink:href="#DejaVuSans-72" transform="translate(2460.539062 0)"/>
    <use xlink:href="#DejaVuSans-69" transform="translate(2501.652344 0)"/>
    <use xlink:href="#DejaVuSans-63" transform="translate(2529.435547 0)"/>
    <use xlink:href="#DejaVuSans-68" transform="translate(2584.416016 0)"/>
    <use xlink:href="#DejaVuSans-6c" transform="translate(2647.794922 0)"/>
    <use xlink:href="#DejaVuSans-65" transform="translate(2675.578125 0)"/>
    <use xlink:href="#DejaVuSans-74" transform="translate(2737.101562 0)"/>
    <use xlink:href="#DejaVuSans-20" transform="translate(2776.310547 0)"/>
    <use xlink:href="#DejaVuSans-73" transform="translate(2808.097656 0)"/>
    <use xlink:href="#DejaVuSans-74" transform="translate(2860.197266 0)"/>
    <use xlink:href="#DejaVuSans-72" transform="translate(2899.40625 0)"/>
    <use xlink:href="#DejaVuSans-65" transform="translate(2938.269531 0)"/>
    <use xlink:href="#DejaVuSans-73" transform="translate(2999.792969 0)"/>
    <use xlink:href="#DejaVuSans-73" transform="translate(3051.892578 0)"/>
    <use xlink:href="#DejaVuSans-20" transform="translate(3103.992188 0)"/>
    <use xlink:href="#DejaVuSans-61" transform="translate(3135.779297 0)"/>
    <use xlink:href="#DejaVuSans-76" transform="translate(3197.058594 0)"/>
    <use xlink:href="#DejaVuSans-67" transform="translate(3256.238281 0)"/>
    <use xlink:href="#DejaVuSans-2c" transform="translate(3319.714844 0)"/>
    <use xlink:href="#DejaVuSans-20" transform="translate(3351.501953 0)"/>
    <use xlink:href="#DejaVuSans-74" transform="translate(3383.289062 0)"/>
    <use xlink:href="#DejaVuSans-65" transform="translate(3422.498047 0)"/>
    <use xlink:href="#DejaVuSans-73" transform="translate(3484.021484 0)"/>
    <use xlink:href="#DejaVuSans-74" transform="translate(3536.121094 0)"/>
    <use xlink:href="#DejaVuSans-20" transform="translate(3575.330078 0)"/>
    <use xlink:href="#DejaVuSans-41" transform="translate(3607.117188 0)"/>
    <use xlink:href="#DejaVuSans-55" transform="translate(3675.525391 0)"/>
    <use xlink:href="#DejaVuSans-43" transform="translate(3748.71875 0)"/>
    <use xlink:href="#DejaVuSans-29" transform="translate(3818.542969 0)"/>
   </g>
  </g>
 </g>
 <defs>
  <clipPath id="pb975d7ef9e">
   <rect x="43.78125" y="62.16" width="280.551942" height="225.854002"/>
  </clipPath>
  <clipPath id="pbd00146177">
   <rect x="342.245279" y="62.16" width="280.551942" height="225.854002"/>
  </clipPath>
  <clipPath id="p6c6114b1d1">
   <rect x="640.709308" y="62.16" width="280.551942" height="225.854002"/>
  </clipPath>
 </defs>
</svg>
